<?xml version="1.0" encoding="UTF-8"?>
<svg id="Capa_2" data-name="Capa 2" xmlns="http://www.w3.org/2000/svg" viewBox="0 0 277.2 383">
  <defs>
    <style>
      .cls-1 {
        fill: none;
        stroke-linecap: round;
        stroke-linejoin: round;
      }

      .cls-1, .cls-2, .cls-3, .cls-4 {
        stroke: #000;
        stroke-width: 4.46px;
      }

      .cls-2 {
        fill: #d2847c;
      }

      .cls-2, .cls-3, .cls-4 {
        stroke-miterlimit: 10;
      }

      .cls-5 {
        fill: #c14f4d;
      }

      .cls-3 {
        fill: #fff3e0;
      }

      .cls-4 {
        fill: #db9d96;
      }
    </style>
  </defs>
  <g id="Capa_1-2" data-name="Capa 1">
    <path class="cls-2" d="M271.09,354.24c-4.01,4.24-10.58,5.02-16.55,5.54-57.65,4.98-196.86,20.02-203.65,20.86-11.62,1.43-26.86-8.85-28.04-20.92-9.15-93.41,5.36-202.94-3.79-296.35-.69-7.01-1.2-14.68,3.06-20.44,5.39-7.3,16.06-8.55,25.43-9.12,60.76-3.73,121.58-6.59,182.43-8.58,5.35-.17,11.01-.28,15.7,2.17,8.84,4.61,10.47,15.79,11.08,25.34,6.02,94.77,12.03,189.54,18.05,284.31,.38,6.01,.52,12.72-3.72,17.2Z"/>
    <path class="cls-3" d="M258.19,344.42c-3.8,4.24-10.04,5.02-15.7,5.54-54.71,4.98-119.24,13.24-174.02,17.4-7.66,.58-15.99,.98-22.33-3.35-8.28-5.66-9.95-16.97-10.88-26.96-8.68-93.41-7.55-190.09-16.23-283.5-.65-7.01-1.14-14.68,2.9-20.44,5.12-7.3,15.24-8.55,24.13-9.12,57.66-3.73,115.37-6.59,173.12-8.58,5.08-.17,10.44-.28,14.9,2.17,8.39,4.61,9.94,15.79,10.51,25.34,5.71,94.77,11.42,189.54,17.13,284.31,.36,6.01,.49,12.72-3.53,17.2Z"/>
    <path class="cls-4" d="M241.82,331.32c-3.8,4.24-10.04,5.02-15.7,5.54-54.71,4.98-119.24,13.24-174.02,17.4-7.66,.58-15.99,.98-22.33-3.35-8.28-5.66-9.95-16.97-10.88-26.96C10.21,230.55,11.35,133.86,2.66,40.46c-.65-7.01-1.14-14.68,2.9-20.44,5.12-7.3,15.24-8.55,24.13-9.12,57.66-3.73,115.37-6.59,173.12-8.58,5.08-.17,10.44-.28,14.9,2.17,8.39,4.61,9.94,15.79,10.51,25.34,5.71,94.77,11.42,189.54,17.13,284.31,.36,6.01,.49,12.72-3.53,17.2Z"/>
    <g>
      <g>
        <path class="cls-5" d="M130.87,96.68c-5.19,1.7-9.16,10.94-12.32,15.2-2.53-5.7-6.76-10.27-11.8-13.88-1.04-.74-2.35-.53-2.99,.62-2.51,4.57,.2,9.53,2.34,13.76,2.8,5.53,6.45,10.43,10.67,14.96,.52,.55,1.37,.54,2.03,.37,8.99-2.32,18-14.89,17.69-24.14-.11-3.46-1.7-8.18-5.62-6.9Z"/>
        <path class="cls-5" d="M80.14,83.63c-.03-.3-.05-.6-.08-.91-.17-1.4-2.25-2.43-3.19-1.04-2.16,3.2-4.01,7.72-3.03,11.65-1.81-.95-3.55-2.04-5.22-3.29-1.44-1.07-3.74,.36-3.26,1.92-.03,0-.05-.02-.08-.03-1.89-.62-3.3,2.4-1.69,3.51,3.39,2.35,6.71,4.37,10.7,4.93,.98,.59,1.95,1.21,2.89,1.87,.09,.06,.2,.11,.3,.16,.33,2.03,3.5,2.57,3.8,.22,.74-5.76,.7-11.6,.13-17.38-.09-.89-.63-1.41-1.28-1.63Z"/>
        <path class="cls-5" d="M169.25,84.01c-.09-.26-.21-.51-.37-.77-.58-.9-1.92-1.12-2.78-.5-2.28,1.62-4.47,3.34-6.63,5.11,.3-4.44,.39-12.06-4.48-12.09-1.87-.01-3.11,1.28-3.31,3.06-.39,3.37,.47,7.24,.71,10.63,.16,2.2-.25,5.53,1.93,6.88,2,1.25,3.97-.35,5.64-1.48,2.32-1.56,8.2-4.97,9.32-8.55,.58-.73,.48-1.64-.01-2.29Z"/>
      </g>
      <g>
        <path class="cls-1" d="M118.53,111.26c-1.63-4.79-5.59-10.14-9.95-12.72-.92-.54-1.97-1.03-3.02-.84-.86,.16-1.59,.75-2.13,1.44-1.66,2.08-1.92,5.02-1.28,7.61,.64,2.59,2.08,4.9,3.57,7.1,3.89,5.76,8.31,11.17,13.18,16.13,8.26-6.33,16.56-14.16,18.12-24.45,.32-2.1,.32-4.35-.64-6.25-.95-1.9-3.06-3.34-5.16-2.97-1.2,.21-2.24,.96-3.17,1.75-4.31,3.64-7.64,8.05-9.2,13.47"/>
        <path class="cls-1" d="M74.61,94.39c-1.37-1.26-4-3.34-5.77-3.92-1.77-.59-3.98-.26-5.07,1.25-1.19,1.66-.55,4.11,.87,5.58,1.42,1.47,3.43,2.18,5.36,2.86,3.67,1.28,7.33,2.56,11,3.84,1.83-5.57,2.17-11.61,.99-17.35-.29-1.43-.71-2.9-1.69-3.98-.98-1.09-2.66-1.66-3.94-.98-1.18,.63-1.67,2.05-1.93,3.37-.64,3.17-.57,6.47,.18,9.61"/>
        <path class="cls-1" d="M159.98,87.03c1.16-1.46,3.17-3.79,4.83-4.65,1.66-.85,3.9-.87,5.2,.46,1.43,1.46,1.18,3.98,0,5.65-1.18,1.67-3.05,2.69-4.85,3.65-3.42,1.83-6.85,3.66-10.27,5.49-2.66-5.22-3.94-11.13-3.65-16.99,.07-1.46,.26-2.97,1.05-4.2,.8-1.22,2.37-2.05,3.75-1.57,1.26,.44,1.97,1.77,2.43,3.03,1.12,3.03,1.57,6.31,1.3,9.53"/>
        <g>
          <g>
            <path class="cls-1" d="M72.77,163.35c-5.44-2.86-10.12-5.54-15.37-8.74,1.36-6.97,2.32-14.02,2.88-21.1,4.57-1.92,8.71-3.58,13.39-5.22,4.74,3.34,9.89,5.89,14.63,9.23,.62,.43,.11,1.17,.08,1.92-.25,6.32-.64,12.64-1.18,18.95"/>
            <path class="cls-1" d="M57.28,153.81c9.96-5.24,20.22-9.92,30.7-14.03"/>
            <path class="cls-1" d="M73.42,128.84c.74,5.11,.84,9.63,1.58,14.74-4.72-3.35-9.44-6.7-14.16-10.05"/>
            <path class="cls-1" d="M72.58,162.78c.87-5.9,1.74-11.79,2.61-17.69,3.64,4.63,7.17,9.02,11.22,13.3"/>
          </g>
          <g>
            <path class="cls-1" d="M124.79,233.78c-10.53-8.07-17.73-20.41-18.83-34.68-.82-10.58,1.83-20.32,6.99-29.03,10.62-17.91,24.45-21.95,37.5-22.97,26.64-2.07,49.92,17.85,51.99,44.5,2.07,26.64-17.85,49.92-44.5,51.99-9.28,.72-18.15-1.23-25.86-5.2"/>
            <path class="cls-1" d="M121.25,175.05c-.16-.05-.31-.11-.46-.17-4.18,6.81-6.33,14.94-5.66,23.51,.9,11.56,6.72,21.56,15.26,28.09"/>
            <path class="cls-1" d="M120.88,175.03c8.46,6.75,14.21,16.86,15.12,28.51,1.73,22.29-14.93,41.76-37.22,43.49-22.29,1.73-41.76-14.93-43.49-37.22-1.73-22.29,14.93-41.76,37.22-43.49,6.97-.54,14.06,.57,20.12,3.57"/>
            <path class="cls-1" d="M120.79,174.88s1.69-3.49,4.54-6.16c6.51-7.37,15.27-11.63,25.84-12.45,21.58-1.68,40.44,14.46,42.12,36.05,1.68,21.58-14.46,40.44-36.05,42.12-7.52,.58-13.41-.43-19.66-3.65"/>
            <path class="cls-1" d="M125.32,168.46c10.39,8.07,17.47,20.32,18.56,34.47,2.07,26.64-17.85,49.92-44.5,51.99-26.64,2.07-49.92-17.85-51.99-44.5-2.07-26.64,17.85-49.92,44.5-51.99,9.04-.7,17.69,1.13,25.25,4.89"/>
          </g>
        </g>
      </g>
    </g>
  </g>
</svg>