<?xml version="1.0" encoding="UTF-8"?>
<svg id="Capa_2" data-name="Capa 2" xmlns="http://www.w3.org/2000/svg" viewBox="0 0 356.71 513.57">
  <defs>
    <style>
      .cls-1 {
        fill: #eb882a;
      }

      .cls-2 {
        fill: #d2847c;
      }

      .cls-2, .cls-3, .cls-4, .cls-5 {
        stroke: #000;
        stroke-linecap: round;
        stroke-linejoin: round;
        stroke-width: 4.46px;
      }

      .cls-3 {
        fill: #fff3e0;
      }

      .cls-4 {
        fill: #c14f4d;
      }

      .cls-5 {
        fill: none;
      }
    </style>
  </defs>
  <g id="Capa_1-2" data-name="Capa 1">
    <g>
      <path class="cls-3" d="M31.85,481.13v-147.73l97.69-88.53V117.82c10.26-16.09,46.18-47.94,51.43-47.94s36.72,31.85,46.99,47.94v127.06l97.69,88.53v147.73H31.85Z"/>
      <path class="cls-4" d="M210.84,192.46c-19.82,.32-39.36,.02-59.17-.64-.63-4.95-.01-10.11,.25-15.09,19.46-.25,38.91-.51,58.37-.76,.53,5.94,.27,10.53,.55,16.49Z"/>
      <path class="cls-5" d="M159.03,176.85c-1.54-10.61-2.48-21.41-1.47-32.11,.91-9.7,3.18-21.97,10.48-29,7.59-7.3,22.3-8.21,30.18-.73,6.77,6.43,8.02,16.52,8.54,25.32,.71,11.99,1.53,23.66,.23,35.68"/>
      <path class="cls-4" d="M263.49,126.1c-5.49,5.89-12.41,14.16-12.57,14.12s-45.43-45.77-68.03-69.4c-26.59,26.11-53.72,51.67-80.85,77.22-3.17-3.46-7.55-7.11-10.73-10.58,28.56-29.49,60.31-65.22,90.66-92.88,23.88,20.06,75.31,79.64,81.52,81.52Z"/>
      <polyline class="cls-5" points="119.83 481.75 115.94 353.33 240.9 352.9 237.44 479.16"/>
      <path class="cls-4" d="M128.48,221.46c-.43,1.3-126.25,112.85-126.25,112.85l13.84,16.86,113.48-106.3-1.06-23.42Z"/>
      <path class="cls-4" d="M228.23,221.46c.43,1.3,126.25,112.85,126.25,112.85l-13.84,16.86-113.48-106.3,1.06-23.42Z"/>
      <path d="M164.27,18.85c4.1-.33,8.21-.5,12.32-.5-.19-6.05-.61-12.29-.8-18.34,2.39,0,4.77,0,7.16,0-.14,5.96-.06,11.92,.23,17.87,3.78-.16,7.57-.31,11.35-.47,.13,0,.27,0,.39,.05,.18,.1,.25,.32,.3,.52,.35,1.44,.43,2.95,.26,4.42-3.91,.29-7.83,.57-11.74,.86,.11,6.55-.29,13.4-.18,19.94,0,.27,0,.57-.2,.76-.15,.15-.38,.19-.59,.21-1.57,.21-3.14,.34-4.72,.41-.18,0-.39,0-.53-.12-.14-.13-.16-.34-.16-.54-.19-6.57-.38-13.14-.57-19.71-3.94,.04-7.87,.09-11.81,.13-.13,0-.27,0-.37-.08-.13-.11-.14-.3-.14-.47,0-1.52-.21-3.43-.2-4.95Z"/>
      <path class="cls-5" d="M181.99,354.31c-.32,.97-1.3,126.47-1.3,126.47"/>
      <polygon class="cls-2" points="108.55 483.19 255.72 482.7 255.72 495.54 107.07 495.54 108.55 483.19"/>
      <path class="cls-2" d="M88.8,496.03h185.19v15.31H89.29s-.49-17.28-.49-15.31Z"/>
      <g>
        <path class="cls-1" d="M201.08,294.48c-2.56,3.54-5.13,7.08-7.69,10.62-.62,.85-1.27,1.73-2.19,2.23-.93,.5-2.22,.49-2.91-.3-.43-.49-5.46-16.48-8.16-16.48-2.91,2.53-4.6,15.92-6.59,16.14-1.28,.14-12.47-15.52-14.94-14.71-1.59,.52,6.14,19.93,6.91,25.85,.09,.68,.2,1.44,.73,1.89,.66,.55,1.64,.36,2.48,.16,8.13-1.96,12.14-1.27,20.32,.45,1.22,.26,2.55,.54,3.66-.02,.93-.46,7.2-12.8,9.08-18.34,.87-2.54,2.52-10.8-.71-7.48Z"/>
        <path d="M200,293.84c-1.66,2.29-3.32,4.59-4.98,6.88-.76,1.05-1.52,2.1-2.28,3.15-.63,.88-1.43,2.32-2.62,2.51-.24,.04-.62,.02-.78-.04,.05,.02-.35-.41,0,.03-.19-.24-.27-.68-.37-.96-.38-1.02-.75-2.05-1.13-3.07-1.01-2.73-2.06-5.46-3.33-8.09-.77-1.61-1.89-4.32-3.8-4.87-2.33-.67-3.6,3.88-4.12,5.42-.97,2.88-1.62,5.86-2.6,8.75-.16,.47-.32,.94-.54,1.39-.09,.17-.19,.34-.28,.51s-.16,.07-.05,.09c.16,.02,.9-.04,.83,0-.04,.03-.35-.29-.07-.03-.28-.25-.55-.5-.8-.77-1.71-1.76-3.25-3.7-4.84-5.57-1.83-2.14-3.65-4.32-5.71-6.25-1.03-.96-3.01-2.95-4.6-2.02-1.47,.86-.6,3.39-.29,4.64,.7,2.77,1.61,5.49,2.49,8.2,.98,3.01,1.98,6.02,2.87,9.06,.37,1.25,.73,2.51,1.01,3.79s.24,2.86,1.22,3.87c1.66,1.72,4.57,.38,6.52,.02,2.16-.41,4.36-.61,6.56-.55s4.28,.38,6.4,.78c2.3,.43,5.02,1.48,7.38,1.07s3.19-3.01,4.15-4.81c1.62-3.02,3.13-6.11,4.53-9.24,1.14-2.56,2.27-5.15,2.87-7.9,.38-1.77,1.54-5.86-.45-7.11-1.09-.68-2.23,.12-3,.88-1.14,1.13,.62,2.9,1.77,1.77,.08-.08,.34-.26,.39-.36,.18-.37,.13,.13-.04-.05,.45,.48-.77-.28-.66-.37,.03-.03,.05,.34,.07,.26-.14,.88-.03,1.83-.17,2.73-.29,1.83-.76,3.61-1.43,5.34-1.74,4.55-3.93,8.97-6.26,13.25-.41,.75-.82,1.5-1.27,2.23-.15,.25-.31,.51-.48,.74-.21,.28,.16-.11-.05,.08-.18,.15-.17,.07-.05,.04-1.7,.39-3.67-.37-5.35-.7s-3.37-.64-5.07-.85c-3.09-.39-6.15-.31-9.22,.16-.86,.13-1.72,.3-2.57,.48-.55,.12-2.04,.75-2.58,.47-.61-.32-.61-2.1-.75-2.79-.92-4.21-2.4-8.31-3.72-12.4-.69-2.12-1.38-4.23-2.01-6.37-.39-1.31-.95-3.14-1.06-4.24-.01-.15,.03-.45-.02-.58,.07,.17-.26,.48-.64,.72-.22,.14-.27-.05-.28,.02,0-.05,.36,.18,.07,0,.26,.15,.52,.29,.77,.47,1.31,.95,2.45,2.25,3.55,3.45,2.67,2.91,5.09,6.04,7.76,8.94,.75,.81,1.8,2.17,3.07,1.84,1.56-.41,2.14-2.68,2.56-3.98,.77-2.36,1.35-4.78,2.08-7.15,.53-1.71,1.05-4.05,2.43-5.31l-.88,.37c-.28-.02-.14-.06-.02,.07,.22,.24,.43,.46,.62,.72,.58,.81,1.04,1.71,1.47,2.61,1.09,2.21,1.99,4.51,2.86,6.81,.62,1.63,1.17,3.29,1.82,4.91,1.07,2.65,4.31,2.33,6.13,.59,1.68-1.61,2.94-3.84,4.3-5.72,1.61-2.23,3.23-4.46,4.84-6.69,.94-1.3-1.22-2.55-2.16-1.26Z"/>
      </g>
    </g>
  </g>
</svg>