<?xml version="1.0" encoding="UTF-8"?>
<svg id="Capa_2" data-name="Capa 2" xmlns="http://www.w3.org/2000/svg" viewBox="0 0 1214.44 740.45">
  <defs>
    <style>
      .cls-1 {
        letter-spacing: 0em;
      }

      .cls-2 {
        fill: #f9f6ed;
      }

      .cls-3 {
        font-size: 265.66px;
      }

      .cls-3, .cls-4, .cls-5 {
        font-family: SeruputKopipersonaluse, 'Seruput Kopi - personal use';
      }

      .cls-4 {
        fill: #aabe99;
        font-size: 416.21px;
      }

      .cls-5 {
        font-size: 242.9px;
      }
    </style>
  </defs>
  <g id="Capa_1-2" data-name="Capa 1">
    <g>
      <path class="cls-2" d="M1181.52,267.97c-13.82-39.41-31.13-79.33-62.38-107.04-75.9-67.3-193.98-36.03-293.21-57.09-43.52-9.23-83.97-28.99-125.79-44.17-84.12-30.53-174.57-36.02-262.9-50.38C98.85-45.72,10.07,158.61,1.12,225.35c-8.96,66.74,36.45,228.34,121.33,239.71,118.14,15.84,210.24,102.34,319.99,148.86,87.89,37.25,186.74,36.44,282.07,31.57,112.01-5.73,223.72-16.22,335.39-26.71,33.83-3.18,69.54-7.04,96.86-27.24,24.07-17.79,38.3-46.1,46.64-74.84,23.6-81.25,6.11-168.89-21.88-248.73Z"/>
      <text class="cls-4" transform="translate(462.42 575.43)"><tspan x="0" y="0">+</tspan></text>
      <g>
        <text class="cls-5" transform="translate(265.33 328.53) rotate(-2.17)"><tspan x="0" y="0">ande</tspan></text>
        <path d="M216.51,354.66c-1,.04-2,.03-3-.04-46.69-2.97-55.15-81.56-56.62-115.2-2.16-49.55,7.26-88.38,26.54-109.33,9.31-10.12,20.61-15.72,32.68-16.2h.07c10.46-.4,19.37,3.43,25.77,11.07,19.9,23.78,8.26,79.91,6.87,86.24-1.3,5.9-7.14,9.62-13.04,8.33-5.9-1.3-9.63-7.14-8.33-13.04h0c4.67-21.32,7.05-56.35-2.28-67.49-1.43-1.7-3.51-3.42-8.15-3.25h-.03c-6.21,.25-12.08,3.33-17.44,9.15-15.08,16.4-22.66,50.5-20.78,93.55,1.94,44.44,14.08,92.91,36.14,94.32,14.52,.87,37.03-42.53,48.95-83.7,1.68-5.8,7.75-9.15,13.55-7.47,5.8,1.68,9.15,7.74,7.47,13.55-.29,.99-7.14,24.53-18.29,48.2-15.91,33.8-32.33,50.62-50.08,51.3Z"/>
      </g>
      <g>
        <text class="cls-3" transform="translate(822.16 498.95) rotate(-2.17)"><tspan x="0" y="0">d</tspan><tspan class="cls-1" x="125.83" y="0">r</tspan><tspan x="233.62" y="0">i</tspan></text>
        <path d="M815.49,488.99c-2.11-4.18-5.71-17.66-12.58-86.2l-.44-4.37,4.25-1.1c1.03-.27,1.98-.54,2.84-.8,.33-.1,.99-.35,2.13-1.04,.86-.51,1.63-1.08,2.3-1.7,2.48-2.72,3.63-5.42,3.53-8.26-.08-2.11-.78-4.01-2.15-5.81-.66-.7-1.95-1.77-4.42-3.1-2.51-1.34-8.9-.85-8.94-.85,0,0-.69-6.33-.99-8.29-.41-3.42-.92-13.65-1.6-31.43-1.19-31.49-3.07-54.79-5.59-69.25-5.75-33.24-18.39-32.76-22.55-32.61-9.32,.35-23.55,11.31-38.45,61.52-7.69,25.53-13.71,55.62-17.88,89.46-.18,2.71-.68,6.23-.68,6.23-1.15,.48-5.28,2.13-8.11,2.95-3.93,1.17-7.94,2.9-11.9,5.13-7.59,4.37-11.19,9.37-10.97,15.27,.13,3.4,1.33,6.25,3.68,8.74,2.19,2.33,4.69,3.35,7.86,3.23,1.57-.06,3.28-.49,5.1-1.29l11.24-5.68,1.84,27.86c.91,14.38,2.59,24.96,4.99,31.45,2.09,5.67,5.01,9.21,8.91,10.84l.22,.1c2.18,1.03,4.19,1.52,5.98,1.45s3.6-.66,5.6-1.76c5.37-4.01,5.88-7.59,5.79-9.94-.08-2.06-.87-4.03-2.42-6.01-1.31-1.29-2.33-2.82-3.04-4.55-.52-1.25-1.11-3.45-2.11-15.12l-.02-.24-.16-4.14c-.35-9.34-.52-15.36-.5-18.4,.01-2.99,.09-6.2,.22-9.52l.19-10.66,3.87-.92c9.4-2.23,16.74-3.91,21.8-4.99,3.44-.77,7.24-1.45,11.25-1.99l5.6-.76,.21,5.65c.26,6.9,.78,14.06,1.55,21.28,3.96,36.12,8.17,59.65,12.51,69.9,3.04,7.11,7.32,10.17,13.87,9.93,3.16-.12,5.77-1.51,8.2-4.37,1.86-2.52,2.72-5.03,2.62-7.69-.09-2.42-.95-5.08-2.56-7.92l-.12-.21Zm-38.35-111.23l-4.42,.77c-4.6,.8-9.24,1.63-13.9,2.5-5.57,1.04-8.1,1.67-9.25,2.02l-.84,.18-2.3,.3h-.23c-3.24,.13-5.79-2.3-5.91-5.66l.02-.68,.3-3.09c5-34.68,12.25-65.43,21.53-91.37l6.57-18.38,4.31,25.11c.76,6.23,2.04,33.65,3.94,83.81l.17,4.48Z"/>
      </g>
    </g>
  </g>
</svg>