<?xml version="1.0" encoding="UTF-8"?>
<svg id="Capa_2" data-name="Capa 2" xmlns="http://www.w3.org/2000/svg" viewBox="0 0 1279.98 417.26">
  <defs>
    <style>
      .cls-1 {
        fill: #d2847c;
      }

      .cls-2 {
        font-family: SeruputKopipersonaluse, 'Seruput Kopi - personal use';
        font-size: 171.62px;
      }

      .cls-3 {
        fill: #fff;
        font-family: Ranira-SemiBold, Ranira;
        font-size: 117.33px;
        font-weight: 600;
      }

      .cls-4 {
        letter-spacing: .01em;
      }
    </style>
  </defs>
  <g id="Capa_1-2" data-name="Capa 1">
    <path class="cls-1" d="M1224.08,95.74c-44.14-43.35-102.91-62.17-160.62-74.02C913.5-9.06,759.08-.63,606.23,7.91c-88.44,4.94-392.76,3.88-470.82,27.81-43.56,13.35-88.98,33.66-114.93,75.95C-16.27,171.55,.06,257.02,40.74,311.76c62.78,84.49,169.02,110.46,267.11,104.75,98.09-5.71,194.1-37.72,291.99-47.76,114.69-11.77,229.36,6.8,343.33,21.58,88.89,11.53,185.06,19.1,262.91-33.29,28.5-19.18,53.78-46.9,65.97-81.88,21.85-62.7-3.83-136.07-47.97-179.42Z"/>
    <g>
      <text class="cls-2" transform="translate(911.21 247.24) rotate(2.28)"><tspan x="0" y="0">20</tspan><tspan class="cls-4" x="106.59" y="0">2</tspan><tspan x="165.76" y="0">5</tspan></text>
      <text class="cls-3" transform="translate(188.94 259.57) rotate(-2.81)"><tspan x="0" y="0">1</tspan></text>
      <text class="cls-3" transform="translate(229.93 257.87) rotate(-5.24)"><tspan x="0" y="0">5</tspan></text>
      <text class="cls-3" transform="translate(302.92 250.76) rotate(-7.05)"><tspan x="0" y="0"> </tspan></text>
      <text class="cls-3" transform="translate(332.55 247.21) rotate(-8.01)"><tspan x="0" y="0">d</tspan></text>
      <text class="cls-3" transform="translate(398.88 237.76) rotate(-8.07)"><tspan x="0" y="0">e</tspan></text>
      <text class="cls-3" transform="translate(458.37 229.37) rotate(-7.46)"><tspan x="0" y="0"> </tspan></text>
      <text class="cls-3" transform="translate(487.89 225.45) rotate(-6.71)"><tspan x="0" y="0">f</tspan></text>
      <text class="cls-3" transform="translate(525.05 221.24) rotate(-1.32)"><tspan x="0" y="0">e</tspan></text>
      <text class="cls-3" transform="translate(584.02 219.92) rotate(-.21)"><tspan x="0" y="0">b</tspan></text>
      <text class="cls-3" transform="translate(648.05 219.7) rotate(.52)"><tspan x="0" y="0">r</tspan></text>
      <text class="cls-3" transform="translate(710.69 220.27) rotate(1.19)"><tspan x="0" y="0">e</tspan></text>
      <text class="cls-3" transform="translate(770.73 221.49) rotate(1.94)"><tspan x="0" y="0">r</tspan></text>
      <text class="cls-3" transform="translate(833.22 223.56) rotate(2.97)"><tspan x="0" y="0">o</tspan></text>
    </g>
  </g>
</svg>