<?xml version="1.0" encoding="UTF-8"?>
<svg id="Capa_2" data-name="Capa 2" xmlns="http://www.w3.org/2000/svg" viewBox="0 0 360.53 423.99">
  <defs>
    <style>
      .cls-1 {
        fill: #eb882a;
      }

      .cls-2 {
        fill: #bfb6a8;
      }

      .cls-3 {
        fill: #fff3e0;
      }
    </style>
  </defs>
  <g id="Capa_1-2" data-name="Capa 1">
    <g>
      <path class="cls-2" d="M127.06,157.86c.07,1.19-.53,2.08-.96,3-1.54,3.26-3.11,6.51-4.68,9.75-.4,.83-.72,1.67-.45,2.59,.07,.25,.3,.55,.53,.64,.24,.09,.66,.06,.84-.1,.56-.49,1.08-1.03,1.54-1.62,2.52-3.18,5.02-6.38,7.53-9.58,.28-.35,.57-.7,.86-1.04,.34-.39,1.16-.56,1.67-.31,2.41,1.22,4.85,2.39,7.21,3.7,1.83,1.02,3.53,2.29,5.34,3.34,9.23,5.38,18.22,11.13,26.84,17.44,2.79,2.04,5.76,3.83,8.33,6.17,.44,.4,.8,.87,1.3,1.42-1.07,1.18-2.1,2.27-3.08,3.4-1.58,1.81-3.18,3.61-4.67,5.5-.83,1.05-1.47,2.26-2.14,3.43-.5,.87-.27,1.72,.21,2.55,.73,1.26,1.85,1.73,2.99,1.12,.93-.49,1.84-1.02,2.7-1.61,3.11-2.11,6.19-4.27,9.3-6.38,.86-.58,1.65-1.33,2.95-1.5,.48,.35,1.12,.74,1.67,1.23,3.81,3.41,7.63,6.81,11.38,10.29,3.43,3.18,6.5,6.68,9.25,10.47,2.42,3.34,4.1,7,4.78,11.07,.2,1.18,.23,2.39,.37,3.58,.33,2.71-2.13,6.28-5.2,7.09-2.23,.58-4.45,.75-6.71,.5-3.59-.39-7.13-1-10.59-2.11-3.87-1.24-7.67-2.64-11.32-4.43-6.07-2.97-12.11-6.02-18.16-9.03-3.63-1.8-7.18-3.78-10.97-5.25-.96-.37-1.88-.96-2.7-1.59-11.56-8.9-23.37-17.48-34.6-26.81-8.1-6.74-15.97-13.73-23.37-21.25-3.48-3.54-6.85-7.19-9.98-11.05-1.42-1.75-2.76-3.55-3.83-5.56-1.86-3.5-1.15-6.7,1.02-9.71,1.01-1.39,2.52-2.09,4.23-2.35,3.32-.5,6.62-.26,9.87,.43,4.27,.91,8.41,2.22,12.46,3.86,5.72,2.31,11.26,4.98,16.79,7.69,.53,.26,1,.66,1.45,.96Z"/>
      <g>
        <path class="cls-1" d="M190.54,269.2c-9.1,8.47-18.19,16.34-27.17,24.34-.55,.49-1.17,.91-1.66,1.28-1.15-.18-1.72-.92-2.38-1.5-4.07-3.58-7.89-7.42-11.57-11.39-21.69-23.43-38.41-49.98-50.01-79.73-3.11-7.97-6.25-15.94-8.78-24.12-.18-.57-.29-1.16-.4-1.75-.02-.13,.06-.38,.14-.41,.23-.07,.59-.17,.71-.05,1.1,1.02,2.16,2.09,3.23,3.14,15.81,15.54,32.89,29.52,51.67,41.36,5.08,3.2,10.18,6.37,15.69,8.85,1.9,.85,3.58,2.21,5.28,3.44,.58,.41,.98,1.11,1.36,1.74,2.27,3.72,4.46,7.49,6.77,11.18,4.31,6.89,8.98,13.52,14.11,19.83,.95,1.16,1.86,2.35,3,3.79Z"/>
        <path class="cls-1" d="M117.65,332.58c-.02,.21,.02,.42-.06,.5-7.69,7.2-16.02,13.63-23.9,20.38-1-.06-1.6-.54-2.16-1.03-2.83-2.48-5.71-4.91-8.44-7.5-7.89-7.49-14.89-15.74-20.98-24.75-7.72-11.42-13.61-23.7-17.24-37.03-.79-2.9-1.41-5.84-2.09-8.77-.48-2.09-.36-4.09,.31-6.2,3.83-12.03,7.52-24.1,11.27-36.15,.31-.99,.75-1.94,1.17-2.99,.89,1.1,1.09,2.29,1.42,3.45,3.38,11.86,7.42,23.49,12.43,34.78,4.77,10.74,10.4,21.02,16.92,30.8,6.28,9.42,13.56,18.03,21.45,26.14,2.52,2.6,5.28,4.92,8.25,7,.59,.41,1.3,.71,1.64,1.37Z"/>
        <path class="cls-1" d="M43.27,394.97c-4.63-2.81-8.44-6.58-11.84-10.8-3.11-3.87-5.93-7.94-8.37-12.26-2-3.54-3.57-7.26-4.54-11.23-.47-1.94-.46-3.79,.09-5.75,2.36-8.37,4.58-16.79,6.87-25.18,.06-.22,.32-.51,.5-.52,.24-.02,.63,.13,.73,.32,.42,.79,.76,1.62,1.12,2.44,1.09,2.47,2.12,4.97,3.28,7.41,5.63,11.89,13.02,22.62,21.63,32.53,2.37,2.73,4.97,5.22,7.94,7.3,.57,.4,.57,1.04,.03,1.49-5.52,4.63-11.05,9.26-16.59,13.88-.22,.18-.53,.24-.86,.38Z"/>
      </g>
      <g>
        <path class="cls-3" d="M157.79,298.11c-.44,.5-.78,1-1.23,1.39-11.35,9.87-22.7,19.74-34.06,29.59-.21,.18-.56,.19-.96,.31-3.82-2.3-7.3-5.14-10.46-8.38-7.58-7.77-14.53-16.05-20.6-25.07-9.36-13.91-16.74-28.83-22.58-44.52-3.51-9.44-6.49-19.05-9.03-28.79-.48-1.83-.4-3.52,.18-5.27,3.07-9.26,6.11-18.54,9.19-27.81,2.89-8.7,5.81-17.38,8.71-26.07,.18-.55,.65-.96,.91-.81,.25,.15,.5,.28,.72,.45,.12,.09,.18,.24,.27,.36,1.11,1.42,2.22,2.84,3.36,4.3,.73,5.05,2.16,9.96,3.77,14.8,4.45,13.41,9.5,26.59,15.58,39.36,10.08,21.18,23.08,40.44,38.57,58.04,5.17,5.88,10.53,11.57,16.41,16.75,.44,.39,.8,.87,1.25,1.36Z"/>
        <path class="cls-3" d="M89.41,356.98c-8.11,6.7-16.11,13.31-24.12,19.92-.21,.17-.53,.22-.8,.32-13.35-10.17-29.89-36.28-36.31-57.45,2.2-7.72,4.45-15.66,6.71-23.6,1.36-4.77,2.73-9.53,4.1-14.3,.11-.39,.17-1,.71-.85,.31,.09,.59,.64,.68,1.03,4.33,18.16,12.78,34.28,24.24,48.91,6.89,8.8,14.59,16.81,23.13,24.02,.56,.48,1.26,.85,1.65,2.01Z"/>
        <path class="cls-3" d="M15.79,366.15c.6,.98,.97,1.44,1.2,1.97,3.15,7.42,7.72,13.93,12.83,20.09,2.8,3.37,5.86,6.48,9.59,8.85,.56,.36,.58,1.02,.05,1.48-1.82,1.57-3.62,3.17-5.5,4.69-3.04,2.46-6.14,4.86-9.21,7.28-2.84,2.23-5.75,4.38-8.9,6.17-1.3,.74-2.67,1.4-4.07,1.91-1.69,.61-3.34-.04-4.31-1.57-.48-.75-.88-1.58-1.15-2.43-.95-2.92-1.11-5.91-.47-8.92,.73-3.38,1.42-6.77,2.25-10.13,2.18-8.75,4.42-17.49,6.65-26.23,.22-.87,.55-1.72,1.02-3.15Z"/>
        <path class="cls-3" d="M210.42,250.39c-3.35,3.71-13.15,12.89-16.52,15.5-2.67-2.47-5.4-5.82-9.88-12.16-5.83-8.23-8.32-12.14-9.58-15.06,.18-.29,.42-.28,.75-.1,4.86,2.66,9.85,5.08,15,7.13,4.05,1.61,8.16,2.98,12.5,3.57,1.78,.24,3.58,.35,5.36,.51,.6,.05,1.2,.04,1.8,.09,.1,0,.19,.17,.57,.52Z"/>
      </g>
      <g>
        <path class="cls-1" d="M138.18,144.58c.26-.82,.59-1.96,.98-3.08,1.23-3.55,2.51-7.07,3.72-10.62,4.11-12.09,7.52-24.39,10.79-36.73,3.35-12.63,6.52-25.3,9.46-38.03,2.23-9.66,4.26-19.36,6.01-29.12,.32-1.77,.62-3.55,.97-5.32,.24-1.21,.57-1.7,2.28-1.34,1.61,.35,3.22,.73,4.84,1.05,1.77,.35,3.55,.64,5.32,.97,.61,.11,1.11,.43,1.45,1.12-1.2,7-2.88,14-4.71,20.96-8.48,32.24-20.66,63.02-36.33,92.44-.99,1.86-1.95,3.73-3.06,5.51-.54,.87-.83,1.96-1.7,2.19Z"/>
        <path class="cls-1" d="M192.11,191.5c1.52-1.39,3-2.83,4.56-4.17,4.9-4.22,10.01-8.17,15.21-12.01,21.47-15.84,44.39-29.21,68.67-40.26,3.95-1.8,7.91-3.58,11.81-5.34,.35,.26,.69,.39,.8,.62,1.13,2.35,3.51,9.28,3.95,11.4-.95,.77-2.13,1.04-3.26,1.42-14.51,4.9-28.75,10.51-42.78,16.66-18.05,7.91-35.36,17.21-52.01,27.74-2.26,1.43-4.53,2.86-6.79,4.28-.05-.11-.11-.22-.16-.34Z"/>
        <path class="cls-1" d="M141.15,28.33c-.36-3.26-.69-6.53-1.09-9.8-.46-3.86-.99-7.72-1.47-11.58-.09-.74-.18-1.49-.17-2.23,0-.21,.33-.59,.53-.61,2.57-.24,5.07,.15,7.5,.98,.41,.14,.94,.95,.91,1.44-.06,.89-.06,1.81-.27,2.68-1.4,5.97-3.02,11.89-4.85,17.74-.17,.53-.26,1.2-1.1,1.38Z"/>
        <path class="cls-1" d="M72.87,50.25c.34-.24,.67-.67,1.06-.71,2.23-.28,4.48-.48,6.72-.7,.38-.04,1.27,.7,1.34,1.09,.33,2.08,.75,4.15,.96,6.24,.38,3.89,.65,7.79,.93,11.69,.07,.9,0,1.8,0,2.7-.15,0-.35,.08-.41,0-.29-.31-.65-.62-.8-1-2.63-6.41-5.93-12.48-9.51-18.4-.15-.25-.18-.57-.29-.92Z"/>
        <path class="cls-1" d="M251.87,228.89c1.86-.03,3.24,.43,4.37,1.57,1.84,1.85,2.12,5.35,.55,7.46-1.31,1.76-3.82,2.46-6.09,1.69-2.5-.85-4.18-3.13-4.24-5.78-.06-2.52,1.81-4.61,4.35-4.86,.45-.04,.9-.07,1.05-.08Z"/>
        <path class="cls-1" d="M338.04,152.08c-.41,3.84-2.3,6.75-5.61,8.7-.74,.44-1.7,.6-2.58,.67-2.2,.18-3.23-.99-3.72-2.52-.63-2-.2-3.88,.53-5.7,1.24-3.07,3.57-5.12,6.6-6.39,1.46-.61,3.14,0,3.89,1.34,.69,1.21,1,2.5,.88,3.89Z"/>
        <path class="cls-1" d="M77.37,128.6c-2.55,.11-4.73-1.25-5.44-3.33-.14-.41-.25-.89-.18-1.31,.17-1.03,.49-2.04,1.24-2.82,2.43-2.55,5.31-2.31,7.15,.43,.25,.37,.42,.79,.62,1.19,.95,1.92,.35,4.23-2.24,5.56-.38,.2-.86,.22-1.15,.29Z"/>
      </g>
      <g>
        <path class="cls-3" d="M355.66,200.66c-1.4,.47-2.74,.15-4.06,.01-7.49-.78-14.98-1.33-22.51-1.64-8.42-.35-16.84-.75-25.27-.63-11.14,.15-22.27,.53-33.38,1.36-4.5,.34-9,.71-13.5,1.03-.68,.05-1.4,.24-2.12-.22,1.02-.72,2.16-1.04,3.28-1.4,10.45-3.37,21.05-6.12,31.82-8.28,6.34-1.27,12.72-2.38,19.12-3.23,7.75-1.04,15.53-1.86,23.36-2.22,6.62-.3,13.23-.64,19.85-.51,.9,.02,1.8,.08,2.7,.14,.55,.04,1.04,.63,1.08,1.24,.02,.3,.05,.6,.04,.9-.03,4.06-.06,8.12-.12,12.19,0,.43-.21,.85-.31,1.26Z"/>
        <path class="cls-3" d="M118.73,110.11c-.07-.42-.17-.78-.19-1.15-.14-3.75-.5-7.48-.83-11.22-.51-5.84-1.29-11.64-2.23-17.41-1.48-9.03-3.25-18-5.23-26.94-.41-1.87-1.08-3.7-1.19-5.52,.82-.82,1.76-.98,2.62-1.06,3.27-.3,6.47-1.31,9.92-1.16,.14,.62,.35,1.18,.38,1.76,.49,10.95,.98,21.89,.35,32.86-.34,6-.61,11.99-1.31,17.96-.46,3.87-.9,7.75-1.89,11.54-.03,.11-.21,.18-.4,.34Z"/>
        <path class="cls-3" d="M269.78,75.55c.22,.18,.5,.32,.64,.55,1.97,3.37,3.96,6.73,5.87,10.14,.91,1.61,.68,2.15-1.03,3.25-.89,.57-1.79,1.11-2.69,1.66-7.43,4.56-14.89,9.07-22.48,13.36-8.78,4.95-17.24,10.41-25.74,15.83-1.64,1.04-3.32,2.02-4.9,2.98-.49-.2-.42-.35-.11-.67,8.93-9.47,43.57-41.83,50.44-47.1Z"/>
        <path class="cls-3" d="M197.84,48.58c.37,.04,.67,.04,.95,.12,.28,.08,.56,.2,.82,.34,1.65,.92,2.92,2.15,2.78,4.19-.14,2.22-1.93,4.3-4.04,4.83-1.52,.39-2.95-.39-3.66-1.9-.96-2.06-.69-5.29,1.97-7.12,.35-.24,.82-.33,1.16-.46Z"/>
      </g>
      <g>
        <path d="M136.35,156.2c.6,.41,1.04,.8,1.55,1.04,13.63,6.51,26.18,14.79,38.49,23.47,3.68,2.59,7.45,5.07,11.24,7.64,.57-.39,1.11-.66,1.54-1.05,11.81-10.81,24.82-20.04,38.18-28.8,19.93-13.07,41.02-23.95,63.06-33.02,1.11-.46,2.24-.88,3.36-1.3,.55-.21,1.41,.07,1.57,.52,2.07,6.12,4.95,11.94,6.76,18.16,.34,1.16,.14,1.66-.96,2.1-6.68,2.72-13.37,5.41-20.06,8.13-14.48,5.9-28.89,11.97-42.92,18.88-13.51,6.66-26.56,14.12-39.24,22.24-.76,.49-1.49,1.02-2.18,1.5-.14,.75,.28,1.18,.7,1.56,3.45,3.14,6.93,6.25,10.36,9.41,3.22,2.96,6.14,6.21,8.85,9.64,3.42,4.31,5.83,9.09,7.17,14.43,1.16,4.59,.72,8.89-1.68,13.05-2.28,3.94-4.93,7.56-8.21,10.71-5.11,4.9-10.16,9.86-15.33,14.69-11.21,10.5-22.77,20.62-34.28,30.8-19.3,17.05-38.69,34-58.49,50.47-14.82,12.32-29.69,24.58-44.53,36.88-3.25,2.69-6.49,5.39-9.69,8.13-4.81,4.11-9.72,8.09-14.83,11.82-2.55,1.86-4.94,3.95-7.4,5.93-3.52,2.83-7.12,5.57-11.04,7.84-1.82,1.05-3.69,2-5.75,2.56-3.6,.96-6.52-.05-8.93-2.79-1.21-1.38-2.08-2.98-2.59-4.72-.93-3.21-1.39-6.49-.86-9.82,.33-2.08,.7-4.16,1.26-6.19,1.28-4.64,2.34-9.33,3.41-14.03,3.18-13.93,6.77-27.76,10.52-41.54,5.77-21.18,11.63-42.33,17.8-63.4,6.47-22.08,13.36-44.03,20.49-65.9,6.15-18.86,12.47-37.68,18.72-56.51,.47-1.43,1.06-2.81,1.52-4.25,.36-1.14,.72-2.3,.87-3.48,.22-1.68,.82-3.2,1.61-4.66,2.34-4.31,5.94-6.64,10.85-7.01,4.87-.37,9.6,.31,14.29,1.55,5.1,1.35,10.02,3.22,14.82,5.37,3.71,1.65,7.36,3.43,11.04,5.15,.67,.32,1.29,.8,2.12,.66,.91-.64,1.08-1.72,1.47-2.67,4.54-10.99,8.39-22.22,11.81-33.6,4.63-15.41,8.68-30.98,12.54-46.6,2.45-9.93,4.84-19.87,6.83-29.91,1.08-5.46,2.12-10.93,3.18-16.39,.29-1.48,.54-2.97,.97-4.4,.2-.68,.73-1.29,1.18-1.88,.59-.78,1.42-1.08,2.39-.92,.89,.15,1.77,.33,2.65,.53,3.82,.85,7.6,1.87,11.49,2.34,.59,.07,1.18,.24,1.76,.39,1.86,.49,2.3,1,2.18,2.8-.1,1.5-.27,2.99-.52,4.47-1.64,9.81-4.11,19.42-6.87,28.96-6.11,21.12-13.83,41.66-23.07,61.61-5.88,12.7-12.36,25.09-19.79,36.97-.47,.76-.9,1.54-1.41,2.43Zm21.44,141.91c-.45-.49-.81-.97-1.25-1.36-5.88-5.18-11.24-10.87-16.41-16.75-15.49-17.6-28.48-36.86-38.57-58.04-6.08-12.77-11.13-25.95-15.58-39.36-1.61-4.84-3.03-9.75-3.77-14.8-1.14-1.46-2.25-2.88-3.36-4.3-.09-.12-.16-.27-.27-.36-.23-.17-.48-.31-.72-.45-.25-.15-.72,.25-.91,.81-2.91,8.69-5.83,17.37-8.71,26.07-3.08,9.26-6.11,18.54-9.19,27.81-.58,1.76-.66,3.44-.18,5.27,2.54,9.75,5.51,19.36,9.03,28.79,5.84,15.69,13.22,30.61,22.58,44.52,6.06,9.01,13.02,17.3,20.6,25.07,3.16,3.24,6.64,6.08,10.46,8.38,.4-.12,.76-.13,.96-.31,11.36-9.85,22.72-19.72,34.06-29.59,.45-.39,.79-.89,1.23-1.39Zm-30.72-140.25c-.45-.3-.92-.7-1.45-.96-5.53-2.71-11.07-5.38-16.79-7.69-4.05-1.64-8.2-2.95-12.46-3.86-3.25-.69-6.55-.94-9.87-.43-1.71,.26-3.22,.96-4.23,2.35-2.17,3.01-2.89,6.21-1.02,9.71,1.07,2.01,2.41,3.81,3.83,5.56,3.13,3.86,6.5,7.51,9.98,11.05,7.39,7.52,15.27,14.51,23.37,21.25,11.22,9.33,23.04,17.91,34.6,26.81,.82,.63,1.74,1.22,2.7,1.59,3.79,1.47,7.34,3.45,10.97,5.25,6.05,3.01,12.09,6.05,18.16,9.03,3.65,1.79,7.45,3.18,11.32,4.43,3.46,1.11,7,1.72,10.59,2.11,2.25,.24,4.47,.08,6.71-.5,3.07-.8,5.54-4.38,5.2-7.09-.15-1.19-.18-2.4-.37-3.58-.68-4.08-2.36-7.73-4.78-11.07-2.74-3.79-5.82-7.29-9.25-10.47-3.75-3.48-7.57-6.87-11.38-10.29-.55-.49-1.18-.88-1.67-1.23-1.29,.17-2.09,.91-2.95,1.5-3.11,2.11-6.19,4.27-9.3,6.38-.87,.59-1.78,1.12-2.7,1.61-1.15,.6-2.26,.14-2.99-1.12-.48-.83-.71-1.68-.21-2.55,.67-1.17,1.31-2.38,2.14-3.43,1.49-1.89,3.09-3.69,4.67-5.5,.98-1.13,2.01-2.22,3.08-3.4-.5-.55-.87-1.02-1.3-1.42-2.57-2.34-5.54-4.13-8.33-6.17-8.62-6.31-17.61-12.06-26.84-17.44-1.81-1.06-3.51-2.32-5.34-3.34-2.36-1.31-4.8-2.48-7.21-3.7-.51-.26-1.33-.08-1.67,.31-.3,.34-.59,.68-.86,1.04-2.51,3.19-5.01,6.39-7.53,9.58-.46,.58-.98,1.13-1.54,1.62-.18,.16-.6,.2-.84,.1-.23-.09-.45-.39-.53-.64-.27-.92,.05-1.77,.45-2.59,1.57-3.25,3.14-6.49,4.68-9.75,.43-.92,1.03-1.81,.96-3Zm63.48,111.34c-1.14-1.44-2.05-2.62-3-3.79-5.13-6.31-9.8-12.95-14.11-19.83-2.31-3.69-4.5-7.46-6.77-11.18-.38-.63-.79-1.32-1.36-1.74-1.71-1.23-3.39-2.58-5.28-3.44-5.51-2.48-10.61-5.65-15.69-8.85-18.78-11.84-35.85-25.81-51.67-41.36-1.07-1.05-2.13-2.12-3.23-3.14-.12-.11-.48-.02-.71,.05-.09,.03-.17,.28-.14,.41,.11,.59,.23,1.18,.4,1.75,2.53,8.19,5.67,16.15,8.78,24.12,11.6,29.75,28.31,56.3,50.01,79.73,3.68,3.98,7.5,7.81,11.57,11.39,.66,.58,1.23,1.32,2.38,1.5,.48-.37,1.1-.79,1.66-1.28,8.98-8,18.07-15.87,27.17-24.34Zm-72.9,63.38c-.33-.66-1.05-.96-1.64-1.37-2.97-2.08-5.73-4.4-8.25-7-7.88-8.11-15.16-16.72-21.45-26.14-6.52-9.78-12.15-20.05-16.92-30.8-5.01-11.28-9.05-22.91-12.43-34.78-.33-1.16-.54-2.35-1.42-3.45-.42,1.05-.86,2-1.17,2.99-3.75,12.05-7.44,24.12-11.27,36.15-.67,2.11-.79,4.11-.31,6.2,.67,2.93,1.3,5.87,2.09,8.77,3.63,13.32,9.52,25.61,17.24,37.03,6.09,9.01,13.1,17.26,20.98,24.75,2.73,2.59,5.61,5.01,8.44,7.5,.56,.49,1.15,.97,2.16,1.03,7.88-6.75,16.21-13.19,23.9-20.38,.08-.08,.04-.29,.06-.5Zm-28.23,24.4c-.39-1.16-1.09-1.53-1.65-2.01-8.54-7.21-16.24-15.23-23.13-24.02-11.46-14.63-19.91-30.75-24.24-48.91-.09-.39-.38-.94-.68-1.03-.54-.15-.59,.46-.71,.85-1.37,4.77-2.74,9.53-4.1,14.3-2.26,7.94-4.52,15.88-6.71,23.6,6.42,21.18,22.95,47.29,36.31,57.45,.27-.1,.59-.14,.8-.32,8.01-6.6,16.01-13.21,24.12-19.92Zm-46.15,37.99c.33-.14,.64-.2,.86-.38,5.54-4.62,11.06-9.25,16.59-13.88,.54-.45,.54-1.09-.03-1.49-2.97-2.08-5.57-4.57-7.94-7.3-8.61-9.91-16-20.64-21.63-32.53-1.16-2.44-2.19-4.94-3.28-7.41-.36-.82-.7-1.65-1.12-2.44-.1-.19-.49-.35-.73-.32-.19,.02-.44,.31-.5,.52-2.29,8.39-4.51,16.81-6.87,25.18-.55,1.97-.56,3.81-.09,5.75,.97,3.97,2.54,7.69,4.54,11.23,2.44,4.32,5.25,8.4,8.37,12.26,3.4,4.22,7.2,7.98,11.84,10.8Zm94.92-250.39c.87-.23,1.17-1.32,1.7-2.19,1.11-1.78,2.07-3.66,3.06-5.51,15.67-29.42,27.85-60.2,36.33-92.44,1.83-6.96,3.51-13.96,4.71-20.96-.34-.69-.84-1-1.45-1.12-1.77-.33-3.55-.62-5.32-.97-1.62-.32-3.22-.71-4.84-1.05-1.7-.36-2.04,.13-2.28,1.34-.35,1.77-.65,3.55-.97,5.32-1.75,9.76-3.78,19.46-6.01,29.12-2.94,12.73-6.11,25.4-9.46,38.03-3.27,12.34-6.68,24.64-10.79,36.73-1.21,3.55-2.49,7.08-3.72,10.62-.39,1.12-.72,2.26-.98,3.08ZM15.79,366.15c-.47,1.44-.8,2.28-1.02,3.15-2.23,8.74-4.48,17.48-6.65,26.23-.83,3.36-1.53,6.75-2.25,10.13-.65,3.01-.48,5.99,.47,8.92,.27,.85,.68,1.68,1.15,2.43,.97,1.54,2.62,2.18,4.31,1.57,1.41-.51,2.77-1.17,4.07-1.91,3.14-1.79,6.05-3.94,8.9-6.17,3.08-2.42,6.17-4.82,9.21-7.28,1.87-1.51,3.67-3.11,5.5-4.69,.53-.46,.51-1.12-.05-1.48-3.73-2.37-6.79-5.48-9.59-8.85-5.12-6.15-9.68-12.67-12.83-20.09-.22-.53-.6-1-1.2-1.97ZM192.11,191.5c.05,.11,.11,.23,.16,.34,2.26-1.43,4.53-2.85,6.79-4.28,16.65-10.53,33.96-19.84,52.01-27.74,14.03-6.14,28.27-11.75,42.78-16.66,1.13-.38,2.31-.64,3.26-1.42-.44-2.12-2.81-9.05-3.95-11.4-.11-.24-.45-.36-.8-.62-3.9,1.76-7.86,3.54-11.81,5.34-24.28,11.05-47.2,24.42-68.67,40.26-5.2,3.84-10.32,7.79-15.21,12.01-1.56,1.34-3.04,2.78-4.56,4.17Zm18.31,58.89c-.38-.36-.47-.51-.57-.52-.6-.05-1.2-.04-1.8-.09-1.79-.16-3.59-.27-5.36-.51-4.33-.59-8.45-1.95-12.5-3.57-5.15-2.06-10.14-4.47-15-7.13-.34-.19-.57-.19-.75,.1,1.26,2.92,3.75,6.83,9.58,15.06,4.49,6.34,7.22,9.7,9.88,12.16,3.36-2.6,13.16-11.79,16.52-15.5Z"/>
        <path d="M359.07,206.68c-2.6-.19-4.85-.33-7.09-.51-5.85-.46-11.69-1.13-17.55-1.37-10.98-.45-21.96-1.08-32.95-.77-9.78,.28-19.56,.35-29.32,1.2-5.4,.47-10.81,.7-16.2,1.22-8.98,.87-17.94,1.92-26.72,4.11-.44,.11-.88,.19-1.32,.26-1.07,.17-2.04-.44-2.48-1.52-.38-.93-.01-2.28,.79-2.85,.37-.26,.74-.51,1.13-.73,9.25-5.08,19.04-8.87,29.07-12.09,11.89-3.81,23.97-6.85,36.25-9.15,9.62-1.81,19.3-3.16,29.03-4.1,11.55-1.12,23.13-1.38,34.73-1.09,.45,.01,.9,.02,1.35,.07,.97,.11,2.3,1.33,2.5,2.35,.14,.73,.26,1.49,.25,2.23-.01,5.72-.06,11.43-.1,17.15,0,.6-.02,1.22-.17,1.79-.3,1.15-.7,2.27-1.18,3.79Zm-3.41-6.02c.11-.41,.31-.83,.31-1.26,.06-4.06,.09-8.12,.12-12.19,0-.3-.03-.6-.04-.9-.04-.61-.53-1.2-1.08-1.24-.9-.06-1.8-.12-2.7-.14-6.63-.13-13.24,.21-19.85,.51-7.83,.36-15.61,1.18-23.36,2.22-6.4,.86-12.77,1.96-19.12,3.23-10.77,2.16-21.37,4.91-31.82,8.28-1.12,.36-2.26,.68-3.28,1.4,.72,.46,1.44,.27,2.12,.22,4.5-.33,9-.7,13.5-1.03,11.11-.83,22.24-1.21,33.38-1.36,8.43-.11,16.85,.28,25.27,.63,7.52,.31,15.02,.86,22.51,1.64,1.32,.14,2.66,.46,4.06-.01Z"/>
        <path d="M103.98,44.87c6.86-1.39,13.61-2.89,20.56-2.99,.27,0,.54,.22,.91,.38,.44,4.28,1,8.6,1.1,12.96,.2,8.42,.3,16.84,0,25.26-.38,10.83-1.41,21.59-3.61,32.22-.88,4.27-1.98,8.49-3.57,12.55-.6,1.53-1.38,2.99-2.14,4.46-.39,.76-1.39,1.06-2.37,.86-.77-.16-1.57-1.16-1.57-1.97,0-.45,0-.9,.04-1.35,.74-8.26,.57-16.51-.08-24.77-.95-12.16-2.97-24.15-5.32-36.1-1.19-6.04-2.46-12.07-3.9-18.05-.23-.98-.76-1.99-.07-3.45Zm14.75,65.23c.19-.16,.37-.23,.4-.34,.99-3.78,1.44-7.67,1.89-11.54,.7-5.96,.97-11.96,1.31-17.96,.62-10.97,.14-21.91-.35-32.86-.03-.58-.24-1.14-.38-1.76-3.45-.15-6.65,.85-9.92,1.16-.86,.08-1.8,.24-2.62,1.06,.11,1.82,.78,3.64,1.19,5.52,1.98,8.93,3.75,17.91,5.23,26.94,.94,5.77,1.72,11.57,2.23,17.41,.33,3.74,.69,7.47,.83,11.22,.01,.37,.12,.73,.19,1.15Z"/>
        <path d="M281.82,87.94c-.27,1.38-.66,2.53-1.67,3.29-.96,.72-1.97,1.39-3,2.01-6.82,4.12-13.6,8.32-20.51,12.29-10.69,6.15-21.25,12.51-31.66,19.12-3.93,2.5-7.89,4.97-11.85,7.42-1.41,.87-2.86,1.66-4.33,2.42-.79,.41-1.65,.71-2.5,1.01-.59,.21-1.63-.21-2-.76-.35-.52-.36-1.66,0-2.16,.36-.48,.74-.95,1.14-1.39,6.89-7.58,14.12-14.81,21.5-21.9,9.11-8.77,18.25-17.51,27.74-25.87,3.16-2.78,6.41-5.47,9.67-8.14,1.39-1.14,2.89-2.16,4.39-3.17,1.28-.86,2.62-.59,3.82,.16,.62,.38,1.18,.95,1.59,1.56,2.67,4.01,5.12,8.15,7.09,12.55,.24,.54,.4,1.12,.54,1.54Zm-12.05-12.39c-6.87,5.27-41.51,37.63-50.44,47.1-.3,.32-.37,.47,.11,.67,1.58-.96,3.27-1.94,4.9-2.98,8.49-5.42,16.96-10.88,25.74-15.83,7.6-4.29,15.05-8.8,22.48-13.36,.9-.55,1.8-1.09,2.69-1.66,1.71-1.1,1.93-1.64,1.03-3.25-1.91-3.4-3.9-6.77-5.87-10.14-.13-.23-.42-.37-.64-.55Z"/>
        <path d="M139.88,.13c1.35,.1,2.72,.11,4.05,.31,1.33,.2,2.67,.48,3.94,.91,2.5,.85,3.89,2.97,3.61,5.59-.21,1.94-.56,3.88-1.06,5.76-1.72,6.38-3.53,12.74-5.32,19.11-.69,2.46-1.51,4.89-2.15,7.36-.45,1.74-.7,3.54-1.06,5.3-.09,.44-.18,.92-.43,1.26-.23,.32-.66,.56-1.05,.66-.19,.05-.59-.23-.71-.46-.66-1.18-1.21-2.42-1.36-3.79-.03-.3-.07-.6-.07-.9,.02-5.74-.88-11.39-1.53-17.07-.39-3.44-.72-6.88-1.08-10.33-.2-1.94-.48-3.88-.62-5.83-.14-1.95-.2-3.9-.2-5.86,0-1.36,.91-2.13,2.36-2.14,.9,0,1.8,0,2.71,0v.12Zm1.27,28.2c.84-.17,.93-.84,1.1-1.38,1.83-5.86,3.46-11.77,4.85-17.74,.2-.87,.2-1.78,.27-2.68,.04-.49-.5-1.3-.91-1.44-2.43-.83-4.93-1.23-7.5-.98-.2,.02-.53,.39-.53,.61,0,.74,.08,1.49,.17,2.23,.49,3.86,1.01,7.72,1.47,11.58,.39,3.27,.73,6.54,1.09,9.8Z"/>
        <path d="M88.31,70.18c.04,3.61,.08,7.21,.13,10.82,0,.79-.32,1.45-.76,2.08-.37,.52-1.63,.59-2.04,.11-.29-.34-.6-.67-.81-1.06-.77-1.46-1.53-2.93-2.24-4.42-3.81-8-7.93-15.84-12.47-23.45-.69-1.16-1.33-2.35-1.93-3.56-.62-1.25,.15-3.28,1.44-3.84,2.64-1.14,5.46-1.62,8.28-2.05,1.18-.18,2.4-.21,3.6-.23,1.98-.04,3.53,.96,4.15,2.83,.47,1.42,.87,2.89,1.03,4.37,.44,4.18,1.08,8.35,1.15,12.57,.03,1.95,.24,3.9,.36,5.85,.03,0,.06,0,.09,0Zm-15.44-19.92c.11,.35,.14,.67,.29,.92,3.58,5.92,6.88,11.98,9.51,18.4,.16,.38,.51,.69,.8,1,.06,.07,.26,0,.41,0,0-.9,.06-1.8,0-2.7-.29-3.9-.55-7.8-.93-11.69-.21-2.09-.63-4.16-.96-6.24-.06-.39-.95-1.13-1.34-1.09-2.24,.21-4.49,.41-6.72,.7-.38,.05-.72,.47-1.06,.71Z"/>
        <path d="M253.03,225.21c4.04-.19,7.5,3.2,8.36,6.33,.82,2.95,.41,5.67-1.14,8.21-1.41,2.32-3.56,3.56-6.29,3.84-2.66,.27-5.05-.31-7.21-1.91-2.53-1.87-4.5-6.21-3-9.64,.24-.55,.38-1.14,.61-1.69,1.37-3.22,3.82-4.9,7.31-5.07,.45-.02,.9-.04,1.35-.06Zm-1.16,3.67c-.15,.01-.6,.03-1.05,.08-2.54,.25-4.42,2.34-4.35,4.86,.06,2.65,1.74,4.94,4.24,5.78,2.27,.77,4.79,.07,6.09-1.69,1.56-2.11,1.29-5.62-.55-7.46-1.13-1.14-2.51-1.6-4.37-1.57Z"/>
        <path d="M340.97,149.88c.09,5.7-2.03,9.5-5.74,12.52-1.18,.96-2.56,1.53-4,2.01-2.45,.82-6.44-.36-7.71-3.85-.63-1.74-.9-3.49-.48-5.31,.95-4.11,2.87-7.56,6.61-9.8,.9-.54,1.79-1.11,2.65-1.71,.64-.44,1.35-.62,2.1-.72,3.78-.5,6.02,2.53,6.41,5,.14,.89,.15,1.79,.15,1.86Zm-2.93,2.19c.12-1.4-.19-2.68-.88-3.89-.76-1.33-2.44-1.94-3.89-1.34-3.03,1.26-5.35,3.31-6.6,6.39-.73,1.81-1.17,3.69-.53,5.7,.49,1.53,1.52,2.7,3.72,2.52,.88-.07,1.84-.23,2.58-.67,3.3-1.95,5.2-4.87,5.61-8.7Z"/>
        <path d="M76.88,132.46c-2.29,.09-4.3-.84-6.09-2.31-1.72-1.42-2.46-3.35-2.71-5.51-.02-.15,0-.3-.01-.45-.43-5.4,4.42-8.46,7.9-8.69,1.53-.1,3.04,.17,4.34,.94,3.69,2.19,5.46,5.92,4.56,9.92-.73,3.26-3.99,6.32-8,6.09Zm.5-3.86c.29-.07,.76-.09,1.15-.29,2.58-1.33,3.19-3.64,2.24-5.56-.2-.4-.37-.82-.62-1.19-1.85-2.74-4.72-2.98-7.15-.43-.75,.78-1.07,1.79-1.24,2.82-.07,.42,.04,.89,.18,1.31,.71,2.08,2.89,3.44,5.44,3.33Z"/>
        <path d="M190.6,53.79c-.05-2.02,.52-3.83,1.8-5.41,.38-.46,.73-.94,1.08-1.43,2.01-2.79,6-2.87,8.05-1.54,.75,.49,1.51,.97,2.16,1.57,2.28,2.08,3.18,4.67,2.49,7.7-.8,3.46-2.88,6-6.29,6.96-4.97,1.39-8.57-1.98-9.18-6.07-.09-.59-.08-1.19-.12-1.79Zm7.25-5.22c-.34,.13-.81,.21-1.16,.46-2.67,1.83-2.93,5.07-1.97,7.12,.71,1.51,2.14,2.29,3.66,1.9,2.1-.53,3.89-2.61,4.04-4.83,.13-2.04-1.13-3.27-2.78-4.19-.26-.14-.54-.27-.82-.34-.28-.07-.58-.07-.95-.12Z"/>
      </g>
    </g>
  </g>
</svg>