<?xml version="1.0" encoding="UTF-8"?>
<svg id="Capa_2" data-name="Capa 2" xmlns="http://www.w3.org/2000/svg" viewBox="0 0 1951.66 5691.63">
  <defs>
    <style>
      .cls-1 {
        fill: #d2847c;
      }

      .cls-2 {
        fill: #f9f6ed;
      }

      .cls-3 {
        fill: #aabe99;
      }
    </style>
  </defs>
  <g id="Capa_1-2" data-name="Capa 1">
    <rect class="cls-2" x="0" y="0" width="1951.66" height="5691.63"/>
    <path class="cls-3" d="M0,203.51c97.88-32.61,302.83-9.37,380.69,97.12,55.97,76.55,79.79,164.11,90.64,252.7,9.47,77.37,13.93,157.78-17.87,230.75-21.29,48.86-57.77,91.81-84.88,138.56-88.81,153.17-71.11,332.66-88.19,502.68-17.08,170.02-93.5,359.86-280.4,423.64"/>
    <path class="cls-1" d="M1951.66,5360.02c-97.88,32.61-302.83,9.37-380.69-97.12-55.97-76.55-79.79-164.11-90.64-252.7-9.47-77.37-13.93-157.78,17.87-230.75,21.29-48.86,57.77-91.81,84.88-138.56,88.81-153.17,71.11-332.66,88.19-502.68,17.08-170.02,93.5-359.86,280.4-423.64"/>
  </g>
</svg>