<?xml version="1.0" encoding="UTF-8"?>
<svg id="Capa_2" data-name="Capa 2" xmlns="http://www.w3.org/2000/svg" viewBox="0 0 403.11 480.12">
  <defs>
    <style>
      .cls-1 {
        fill: #c14f4d;
      }
    </style>
  </defs>
  <g id="Capa_1-2" data-name="Capa 1">
    <g>
      <path class="cls-1" d="M215.25,479.9c-27.69-.46-55.38-.32-83.02-2.42-18.61-1.41-37.2-2.96-55.8-4.54-9.91-.84-19.84-1.66-29.7-2.91-7.08-.9-14.09-2.39-21.09-3.83-11.14-2.29-17.92-9.42-21.36-19.97-2.33-7.14-3.28-14.55-3.85-22.01-.29-3.72-.44-7.46-.43-11.19,.1-32.98-.17-65.96,.5-98.93,.59-28.91,2.21-57.81,5.82-86.55,.39-3.08,.81-6.18,1.51-9.2,1.87-8.03,6.99-13.11,14.88-15.08,4.2-1.05,8.57-1.54,12.89-1.87,4.02-.31,8.09-.2,12.13-.04,27.98,1.08,55.95,2.22,83.92,3.33,13.36,.53,26.73,1.03,40.09,1.54,1.24,.05,2.49,.11,3.73,.06,2.96-.11,3.99-.76,4.51-3.62,1.23-6.73,2.28-13.49,3.31-20.25,.66-4.3,1.2-8.61,1.69-12.93,.23-2-.26-3.69-2.63-4.17-.91-.18-1.78-.54-2.67-.83-7.09-2.33-10.57-7.5-10.86-14.7-.22-5.58-.14-11.21,.33-16.77,.53-6.19,1.77-12.31,2.49-18.49,1.48-12.67,8.41-15.44,17.44-17.62,1.19-.29,2.47-.26,3.71-.33,30.76-1.67,61.55-2.29,92.35-1.75,4.99,.09,9.92,.52,14.83,1.46,4.05,.78,7.76,2.32,11.18,4.5,6.44,4.12,10.11,9.8,10.07,17.77-.07,11.52-.29,23.02-1.62,34.47-1.16,9.99-4.38,13.63-13.95,16.16-5.58,1.47-5.55,1.47-5.61,7.21-.12,10.27-.33,20.53-.4,30.79-.04,5.79,.05,5.79,6.08,7.2,5.14,1.2,10.35,2.19,15.41,3.7,5.05,1.51,10,3.38,14.87,5.4,8.44,3.49,13.34,10.07,14.98,18.89,1.02,5.49,1.76,11.09,1.92,16.66,.36,12.75,.48,25.51,.36,38.26-.33,34.84-.08,69.69-1.8,104.51-.62,12.44-1.54,24.84-4.01,37.06-1.23,6.11-2.99,12.08-5.8,17.68-5.79,11.53-14.69,19.02-27.63,21.46-4.3,.81-8.59,1.3-12.95,1.52-16.79,.84-33.59,.57-50.39,.38-11.82-.13-23.64-.03-35.46-.03Zm22.86-188.05c.75,2.42,2.73,4.43,4.21,6.68,12.21,18.6,18.64,38.4,13.95,60.97-3.31,15.9-9.32,30.32-21.03,41.82-7.34,7.21-15.71,13.18-24.77,18.12-13.13,7.17-27.05,10.45-42.12,9.62-15.85-.87-30.61-5.01-44.37-12.78-28.16-15.91-41.67-40.22-39.97-72.4,1.06-20.16,8.85-37.97,22.05-53.35,1.74-2.03,4.09-3.67,5.14-6.66-2.34-1.3-4.51-.94-6.58-1.1-21.08-1.6-42.31,.22-63.34-2.66-2.21-.3-3.33,.73-3.51,3.24-.3,4.34-.42,8.69-.57,13.05-.83,24.55-1.68,49.1-2.44,73.66-.51,16.47-1.07,32.95-1.29,49.43-.17,12.67,.32,15.77,14.75,19.28,13.63,3.31,27.45,5.41,41.34,6.93,27.86,3.05,55.86,3.92,83.84,3.12,36.41-1.05,72.76,.9,109.13,1.34,5.29,.06,10.57,.17,15.86,.11,4.89-.06,8.17-2.65,9.99-7.07,.82-2,1.44-4.1,1.96-6.21,1.95-7.87,3.01-15.89,3.62-23.95,2.12-28.21,2.67-56.52,5.24-84.72,.84-9.27,.69-18.64,.96-27.97,.04-1.55-.06-3.11-.19-4.65-.19-2.21-1.51-3.26-3.68-3.35-.93-.04-1.86-.08-2.8-.11-23.63-.64-47.25-1.29-70.88-1.9-1.44-.04-3.09-.5-4.49,1.49Zm41.48-14.55c17.35,.15,35.05,.93,52.74,2.09,2.17,.14,4.35,.21,6.52,.18,4.32-.07,5.03-.62,5.04-4.72,0-7.15-.06-14.3-.41-21.44-.15-3.07-.87-6.16-1.68-9.14-1.2-4.41-3.8-7.84-8.18-9.55-4.62-1.81-9.22-3.78-13.99-5.09-20.76-5.71-41.91-9-63.44-9.59-24.55-.67-49.11-1.02-73.66-1.65-16.47-.42-32.93-1.06-49.4-1.62-2.8-.09-5.59-.33-8.39-.36-4.51-.05-4.78,.17-5.55,4.37-.56,3.06-.84,6.17-1.56,9.19-2.52,10.63-8.44,16.43-19.18,17.38-13.33,1.17-26.73,1.18-39.97-1.32-10.28-1.94-14.34-7.13-14.03-17.52,.12-4.04,.65-8.06,.88-12.09,.15-2.56-.68-3.59-2.98-3.73-5.61-.35-11.19-.19-16.67,1.25-5.17,1.36-5.99,2.33-6.38,7.62-.65,8.98-.4,17.99-1.75,26.96-1.07,7.14,1.95,10.89,9.48,12.41,7.6,1.54,15.3,2.99,23.02,3.46,26.99,1.64,54.01,2.85,81.02,4.22,3.13,.16,6.13-.35,9.19-1.14,23.61-6.08,46.81-4.53,69.46,4.42,3.53,1.4,7.01,2.27,10.8,2.45,19.56,.92,39.12,1.95,59.06,2.97Zm-72.07,179.57c-25.12,0-43.8,.31-62.46-.09-15.54-.33-31.12-.93-46.58-2.45-16.07-1.59-32.03-4.35-48.01-6.78-3.97-.6-7.88-1.76-11.72-2.97-7.6-2.39-11.7-7.7-12.76-15.61-.75-5.59-.58-11.17-.36-16.77,.85-22.07,1.72-44.14,2.59-66.21,.76-19.27,1.31-38.55,2.38-57.81,.66-12.01,1.02-8.83-8.97-12.14-.59-.19-1.21-.27-1.82-.39-3.17-.63-4.16-.02-4.21,3.02-.13,8.09-.2,16.18-.18,24.27,.12,33.6-.09,67.2-1.82,100.77-.4,7.75-.36,15.56,.01,23.32,.24,4.93,1.14,9.89,2.31,14.7,1.51,6.19,5.35,10.4,11.92,11.7,5.79,1.15,11.51,2.72,17.33,3.63,25.23,3.94,50.74,4.97,76.12,7.42,17.98,1.73,36.02,2.06,54.06,2.53,41.05,1.08,82.11,1.73,123.18,1.47,3.42-.02,6.85-.13,10.25-.5,10.45-1.12,18.03-6.4,22.2-16.14,1.46-3.41,2.7-6.96,3.64-10.55,3.4-13,4.84-26.3,5.38-39.68,1.22-29.84,2.3-59.68,3.4-89.53,.19-5.28,.28-10.58,.27-15.86,0-3.05-.98-4.22-3.7-4.21-12.28,.05-12.03-1.03-12.59,11.22-.5,10.88-.57,21.77-1.08,32.64-.93,20.2-2.07,40.39-3.06,60.58-.64,13.06-1.57,26.08-3.66,39-.75,4.64-2,9.13-4.39,13.2-3.19,5.42-7.69,8.9-14.28,8.99-5.29,.08-10.58,.28-15.86,.22-28-.32-55.99-.7-77.53-.98Zm-39.74-181.31c-4.67,.41-9.94,.83-15.19,1.34-15.05,1.48-27.06,8.81-36.85,19.89-11.2,12.67-17.9,27.5-20.35,44.28-4.35,29.79,14.78,56.66,34.27,66.18,12.53,6.12,25.4,9.98,39.3,10.45,6.21,.21,12.37,.28,18.56-1.07,12.47-2.71,23.02-8.95,33.21-16.3,11.09-8,18.36-18.46,21.74-31.58,1.55-6.01,2.69-12.14,3.61-18.28,.69-4.61,.56-9.29-.39-13.93-3.84-18.75-13.8-33.73-28.14-46.04-.47-.4-.98-.77-1.5-1.11-14.47-9.5-30.48-13.62-48.26-13.84Zm120.93-92.49s-.1,0-.15-.01c0-2.48,.05-4.96,0-7.45-.11-4.68-.82-5.44-5.27-5.7-1.86-.11-3.72-.06-5.58-.13-21.08-.78-42.21-.03-63.24-2.07-4.63-.45-9.26-.88-13.9-1.21-4.02-.28-5.13,.61-5.58,4.35-.26,2.15-.32,4.33-.46,6.5-.35,5.56-.76,11.12-1.03,16.69-.68,14.07-3.62,12.57,11.12,12.72,25.14,.25,50.25,.81,75.27,3.54,1.23,.13,2.48,.16,3.72,.2,2.28,.08,3.37-1.13,3.51-3.32,.54-8.04,1.08-16.08,1.61-24.12Zm-47.99-74.66s0-.09,0-.13c-16.16-.23-32.33-.47-48.49-.7-1.86-.03-3.73-.02-5.58,.09-2.5,.15-3.92,1.73-4.57,3.98-.43,1.48-.74,3.04-.83,4.57-.61,10.55-1.23,21.1-1.68,31.66-.17,4.13,.46,4.99,4.52,5.51,9.55,1.21,19.12,2.38,28.72,3.09,16.74,1.24,33.5,2.12,50.25,3.14,12.41,.75,24.84,1.5,37.28,.95,6.72-.3,7.45-.94,8.53-7.37,1.81-10.78,1.6-21.69,1.55-32.56-.03-6.3-2.26-9.24-8.28-10.67-4.19-1-8.61-1.45-12.93-1.49-16.16-.17-32.33-.07-48.5-.07ZM81.5,214.42c0-.13,0-.27,0-.4-4.34,0-8.69,.14-13.03-.03-14.91-.58-11.69-2.07-13.3,12.69-.7,6.42,1,8.21,7.33,9.64,.6,.14,1.22,.21,1.84,.3,9.84,1.5,19.75,2.17,29.7,1.86,9.09-.28,12.97-3.66,14.45-12.51,.36-2.13,.41-4.32,.5-6.49,.09-2.24-1.1-3.36-3.32-3.5-8.05-.51-16.1-1.04-24.16-1.56Z"/>
      <path class="cls-1" d="M287.53,36.72c-.04-8.51,.97-17.46,2.09-26.41,.35-2.82,.96-5.51,2.56-7.89,2.21-3.28,6.34-3.24,8.4,.2,.94,1.57,1.59,3.37,2.04,5.14,.46,1.79,.64,3.68,.73,5.54,.63,12.45-.03,24.84-2.31,37.1-.56,3.03-1.64,5.99-2.75,8.88-.7,1.8-2.28,3.04-4.27,3.21-2.41,.2-4.26-1.14-5.25-3.17-.79-1.62-1.12-3.52-1.4-5.33-.86-5.58-.12-11.16,.16-17.26Z"/>
      <path class="cls-1" d="M209.69,55.28c-.15,.61-.33,1.84-.75,2.99-.84,2.32-3.94,3.53-6.19,2.38-1.08-.55-2.21-1.24-2.97-2.15-1.76-2.14-3.74-4.27-4.88-6.75-4.91-10.7-9.59-21.51-14.23-32.32-.84-1.96-1.37-4.13-1.66-6.25-.55-3.96,.89-6.96,3.56-7.76,3.04-.91,5.52,.24,7.43,2.56,1.38,1.67,2.71,3.42,3.73,5.32,2.04,3.82,3.99,7.7,5.72,11.67,2.73,6.25,5.16,12.62,7.87,18.87,1.51,3.48,2.24,7.07,2.36,11.45Z"/>
      <path class="cls-1" d="M106,55.45c1.93,0,3.66,.59,5.19,1.75,1.72,1.31,3.52,2.55,5.11,4.01,8.45,7.74,16.89,15.51,25.24,23.36,1.55,1.46,2.85,3.28,3.94,5.13,1.17,1.98,1.27,4.3-.23,6.13-1.49,1.82-3.61,2.14-5.92,1.41-2.7-.86-5.12-2.21-7.33-3.94-9.06-7.07-17.49-14.83-25.42-23.13-2.34-2.45-4.67-5.01-5.48-8.49-.8-3.4,1.55-6.38,4.92-6.25Z"/>
      <path class="cls-1" d="M393.73,51.23c1.29,.29,2.21,.42,3.08,.7,1.7,.55,2.56,2.96,1.81,4.66-1.05,2.41-2.96,4-5.14,5.2-11.13,6.12-22.31,12.17-33.48,18.23-.81,.44-1.68,.81-2.57,1.08-2.28,.69-4.31,.29-5.83-1.65-1.47-1.88-1.22-4.82,.66-6.8,1.06-1.12,2.28-2.1,3.55-2.99,9.96-6.96,20.93-12.07,31.94-17.07,1.92-.87,4.19-.97,5.98-1.36Z"/>
      <path class="cls-1" d="M374.81,147.62c-2.48,0-6.52,.12-10.55-.05-1.82-.08-3.71-.49-5.41-1.16-3.21-1.28-3.85-5.44-1.28-7.67,1.91-1.66,4.14-2.74,6.71-2.93,9.6-.7,19.19-1.45,28.8-2,2.11-.12,4.32,.33,6.37,.92,2.18,.63,3.75,3.05,3.64,4.91-.12,2.04-1.22,3.68-2.94,4.43-2.24,.98-4.67,1.76-7.08,2.05-5.55,.65-11.13,.94-18.27,1.5Z"/>
      <path class="cls-1" d="M285.9,252.09c.34-8.74,4.67-13.92,13.21-15.59,3.73-.73,7.49-.37,11.07,.73,5.75,1.76,9.41,7.54,8.74,13.85-.5,4.72-2.19,9.04-5.56,12.57-5.03,5.24-12.07,6.62-18.82,3.62-5.78-2.56-8.92-8.08-8.64-15.19Zm16.75-7.8c-1.28,.03-2.8,.47-3.49,2.05-.85,1.96-1.68,3.99-2.1,6.07-.63,3.1,.51,5.3,2.75,6.19,2.71,1.08,5.61,.26,7.36-2.23,.7-.99,1.24-2.13,1.67-3.27,1.9-5.06-.49-8.63-6.19-8.81Z"/>
      <path class="cls-1" d="M173.35,403.19c-22.35-1.39-40.96-9.67-52.4-30-9.86-17.52-12.2-44,6.28-63.27,13.92-14.52,30.82-21.61,51.37-17.98,7.4,1.3,14.55,3.13,21.28,6.53,21.81,11.02,33.26,34.13,29.08,58.26-2.43,14.03-8.07,26.22-19.92,34.6-10.57,7.48-22.13,12.64-35.68,11.86Zm-.77-103.55c-19.67-.78-37.73,9.75-44.45,24.29-4.28,9.27-5.95,19.07-4.41,29.08,2.14,13.87,8.83,25.07,21.4,32.15,8.23,4.63,17.12,7.2,26.45,8.41,10.66,1.38,20.31-1.26,29.2-7.11,3.91-2.58,7.48-5.55,10.76-8.88,3.55-3.6,6.28-7.74,7.81-12.55,8.96-28.13-3.36-50.56-26.66-60.88-7.18-3.18-14.84-4.47-20.1-4.52Z"/>
      <path class="cls-1" d="M244.91,147.46c-12.43,.29-24.86,.72-37.29,.82-11.86,.09-13.5-1.56-14.11-13.18-.16-3.1-.24-6.23-.03-9.32,.33-4.92,2.5-7.15,7.47-8.03,1.22-.22,2.47-.29,3.71-.31,14.91-.21,29.79-.69,44.72,.75,10.17,.98,20.49,.41,30.75,.59,3.41,.06,6.85,.08,10.22,.55,3.23,.46,4.98,2.5,5,5.73,.03,4.97-.07,9.96-.54,14.9-.5,5.31-2.28,6.83-7.94,6.95-12.12,.25-24.25,.3-36.37,.42-1.87,.02-3.73,0-5.6,0,0,.04,0,.07,0,.11Zm2.37-6.5c0,.07,0,.14,0,.2,11.46-.35,22.92-.69,34.38-1.05,.93-.03,1.86-.08,2.77-.25,1.63-.29,2.9-1.08,3-2.93,.1-1.85,.11-3.71,.16-5.57,.06-2.19-.96-3.52-3.17-3.72-3.39-.3-6.79-.64-10.19-.77-12.7-.51-25.41-.71-38.1-1.47-9.31-.56-18.59,0-27.88-.02-1.23,0-2.51,.12-3.67,.49-.79,.25-1.85,.91-2.03,1.59-.98,3.6-1.44,7.48-.1,10.87,1.02,2.59,4.42,1.48,6.76,1.9,2.73,.49,5.54,.67,8.32,.69,9.92,.08,19.84,.03,29.75,.03Z"/>
    </g>
  </g>
</svg>