<?xml version="1.0" encoding="UTF-8"?>
<svg id="Capa_2" data-name="Capa 2" xmlns="http://www.w3.org/2000/svg" viewBox="0 0 1337.52 591.41">
  <defs>
    <style>
      .cls-1 {
        letter-spacing: 0em;
      }

      .cls-2 {
        letter-spacing: .04em;
      }

      .cls-3 {
        letter-spacing: -.02em;
      }

      .cls-4 {
        fill: #c14f4d;
      }

      .cls-5 {
        font-family: SeruputKopipersonaluse, 'Seruput Kopi - personal use';
        font-size: 244.03px;
      }

      .cls-5, .cls-6 {
        fill: #f9f6ed;
      }

      .cls-7 {
        letter-spacing: .07em;
      }

      .cls-6 {
        font-family: Ranira-SemiBold, Ranira;
        font-size: 94.33px;
        font-weight: 600;
      }

      .cls-8 {
        letter-spacing: 0em;
      }

      .cls-9 {
        letter-spacing: -.03em;
      }

      .cls-10 {
        letter-spacing: 0em;
      }
    </style>
  </defs>
  <g id="Capa_1-2" data-name="Capa 1">
    <path class="cls-4" d="M1336.48,332.05c-9.28-107.09-74.78-192.33-152.15-235.01-77.37-42.68-165.58-49.35-252-50.36C596.93,42.74,177.96-78.57,38.43,86.33-33.47,172.9-1.32,418.83,108.45,518.39c75.26,68.27,176.29,80.49,272.09,69.45,95.8-11.04,190.52-42.93,286.31-54.45,163.69-19.68,326.1,20.58,489.81,1.58,65.16-7.56,140.38-34.06,169.14-109.57,11.13-29.22,13.39-62.18,10.68-93.36Z"/>
    <text class="cls-5" transform="translate(181.35 412.6)"><tspan x="0" y="0">i</tspan><tspan class="cls-2" x="45.52" y="0">m</tspan><tspan class="cls-7" x="185.17" y="0">p</tspan><tspan class="cls-1" x="298.01" y="0">or</tspan><tspan class="cls-8" x="470.43" y="0">t</tspan><tspan x="558.37" y="0">ante</tspan></text>
    <text class="cls-6" transform="translate(380.05 186.87)"><tspan x="0" y="0">In</tspan><tspan class="cls-9" x="96.88" y="0">f</tspan><tspan class="cls-3" x="128.39" y="0">o</tspan><tspan x="180.55" y="0">rm</tspan><tspan class="cls-10" x="326.39" y="0">a</tspan><tspan x="378.56" y="0">ción</tspan></text>
  </g>
</svg>