<?xml version="1.0" encoding="UTF-8"?>
<svg id="Capa_2" data-name="Capa 2" xmlns="http://www.w3.org/2000/svg" viewBox="0 0 1337.52 591.41">
  <defs>
    <style>
      .cls-1 {
        fill: #eb882a;
      }

      .cls-2 {
        font-family: SeruputKopipersonaluse, 'Seruput Kopi - personal use';
        font-size: 244.03px;
      }

      .cls-3 {
        letter-spacing: 0em;
      }

      .cls-4 {
        letter-spacing: -.02em;
      }

      .cls-5 {
        fill: #fff;
        font-family: Ranira-SemiBold, Ranira;
        font-size: 94.33px;
        font-weight: 600;
      }

      .cls-6 {
        letter-spacing: .07em;
      }

      .cls-7 {
        letter-spacing: .04em;
      }

      .cls-8 {
        letter-spacing: -.01em;
      }
    </style>
  </defs>
  <g id="Capa_1-2" data-name="Capa 1">
    <path class="cls-1" d="M1336.48,332.05c-9.28-107.09-74.78-192.33-152.15-235.01-77.37-42.68-165.58-49.35-252-50.36C596.93,42.74,177.96-78.57,38.43,86.33-33.47,172.9-1.32,418.83,108.45,518.39c75.26,68.27,176.29,80.49,272.09,69.45,95.8-11.04,190.52-42.93,286.31-54.45,163.69-19.68,326.1,20.58,489.81,1.58,65.16-7.56,140.38-34.06,169.14-109.57,11.13-29.22,13.39-62.18,10.68-93.36Z"/>
    <text class="cls-2" transform="translate(325.23 412.6)"><tspan class="cls-3" x="0" y="0">h</tspan><tspan class="cls-7" x="116.65" y="0">i</tspan><tspan x="171.7" y="0">s</tspan><tspan class="cls-6" x="238.07" y="0">t</tspan><tspan x="345.08" y="0">o</tspan><tspan class="cls-3" x="419.67" y="0">r</tspan><tspan x="518.69" y="0">ia</tspan></text>
    <text class="cls-5" transform="translate(486.93 186.87)"><tspan class="cls-4" x="0" y="0">N</tspan><tspan class="cls-8" x="65.28" y="0">u</tspan><tspan x="128.58" y="0">estra</tspan></text>
  </g>
</svg>