<?xml version="1.0" encoding="UTF-8"?>
<svg id="Capa_2" data-name="Capa 2" xmlns="http://www.w3.org/2000/svg" viewBox="0 0 350.96 369.73">
  <defs>
    <style>
      .cls-1 {
        fill: #c14f4d;
      }
    </style>
  </defs>
  <g id="Capa_1-2" data-name="Capa 1">
    <g>
      <path class="cls-1" d="M225.88,204.06c-.35,.38-6.42-4.64-17.21-14.14-1.8-1.59-3.73-3.29-5.79-5.12-2.1-1.79-4.34-3.68-6.55-5.84-1.8-2.61-5.49-3.44-7.28-6.54-2.29-2.56-5.1-4.81-8-7.21-2.89-2.39-5.29-5.54-8.67-7.86-3.85-1.81-5.03-6.7-9.32-8.48-3.42-2.71-6.63-5.85-9.95-9.08-2.7-3.89-6.85-6.43-10.54-9.64-2.75-4.23-6.78-7.28-11.11-10.2-2.63-4.73-6.66-8.15-11.66-10.71-3.97-3.65-7.56-7.89-12.17-11.21-4.19-3.77-8.59-7.47-12.66-11.68-5.02-3.19-9.34-7.3-13.11-12.12-5.61-3.63-7.88-6.4-17-15.78-1.56-1.67-3.24-3.29-5.1-4.98,4.11-.56,8.07-1.29,12.54-1.97l3.38-.49,1.72-.23,.95-.11c1.24-.13,2.48-.2,3.75-.17,6.39-.71,12.83-1.84,19.41-2.45,6.61-.32,13.32-.59,19.9-2.5,6.67-1.11,13.42-2.34,20.35-2.54,6.71-2.09,13.7-2.39,20.77-2.58,6.96-1.07,14.12-1.04,21.14-2.62,7.13-.67,14.2-2.3,21.49-2.64,7.26-.51,14.47-1.02,21.49-2.63,7.01-1.67,14.2-1.4,21.15-2.56,7.13,.32,13.87-2.09,20.78-2.51,6.84-.96,13.72-1,20.36-2.44,6.68-1.04,13.29-2.08,19.91-2.37,6.34-2.62,13.09-1.14,19.43-2.3,1.26,0,2.51-.07,3.74-.17l.96-.1,1.6-.18c1.07-.13,2.14-.27,3.21-.41,4.42-.61,8.81-1.23,13.18-1.84-1.29,2.05-2.65,4.16-4.06,6.26-1.38,2.3-2.94,4.69-4.5,7l-1.17,1.72-.42,.6-.34,.47-1.36,1.87c-1.81,2.5-3.56,5-4.9,7.74-3.42,5-6.03,10.4-9.8,14.94-2.42,5.4-6.94,9.32-9.46,14.39-3.07,4.73-6.01,9.39-9.11,13.82-4.12,3.75-6.01,8.83-8.73,13.2-2.93,4.24-4.85,8.98-8.32,12.58-2.76,4.04-5.87,7.71-7.9,11.9-2.34,4.01-6.69,6.53-7.46,11.21-2.08,3.83-5.87,6.39-7,10.48-1.22,4.04-4.45,6.61-6.52,9.72-2.09,3.1-4.1,6.08-6.02,8.92-8.64,12.78-15.51,22.79-20.29,29.54-4.79,6.76-7.5,10.27-7.83,10.06-.35-.23,2.27-5.03,7.45-13.76,5.18-8.72,12.93-21.36,22.83-37.26,1.98-3.18,3.26-7,6.19-9.93,2.21-3.39,3.85-7.34,6.69-10.68,1.25-4.37,4.59-7.55,7.16-11.4,2.46-3.92,5.41-7.69,7.62-12.08,2.02-4.53,5.72-8.13,8.06-12.75,3.49-3.88,6.18-8.43,8.49-13.37,3.6-4.1,5.79-9.25,8.87-13.96,4.08-4.07,6.48-9.35,9.25-14.53,2.81-5.15,6.57-9.82,9.62-15.05,1.74-2.48,3.34-5.09,4.94-7.71l1.21-1.98,.52-.85,.1-.18c.14-.25,.28-.46,.52-.74-.05-.16-.13-.23-.21-.26-.6,.22-.81,.32-.99,.32-.05,0-.09-.01-.15-.02l-.09-.03-.9,.07c-1.24,.08-2.49,.13-3.75,.15-6.34,1.17-12.85,1.65-19.41,2.45-6.49,1.28-13.2,1.55-19.9,2.5-6.68,1.08-13.65,.38-20.35,2.55-6.84,1-13.81,1.47-20.77,2.58-7.01,.69-14.08,1.38-21.14,2.61-7.27-.44-14.34,1.24-21.49,2.64-7.17,1.27-14.36,1.95-21.49,2.63-7.09,1.01-14.16,1.8-21.15,2.57-6.94,1.25-13.98,1.14-20.78,2.51-6.78,1.39-13.72,1.07-20.36,2.43-6.66,1.21-13.27,2.23-19.91,2.38-6.56,.8-13.18,.4-19.42,2.3-7.4,1.11-3.47,1.59-4.79,1.29-.27-.07-.72-.16-1.19-.03,.4,.22,.55,.36,.71,.58l.12,.17s.15,.17,.28,.3l.4,.42,1.6,1.69c2.12,2.24,4.25,4.42,6.74,6.21,3.49,5.13,8.72,8.26,12.96,12.3,4.09,4.19,7.97,8.45,12.49,11.87,4.55,3.38,7.9,7.88,11.98,11.41,4.47,3.12,7.1,8.04,11.45,10.93,3.64,3.65,7.51,6.87,10.9,10.43,4.82,2.02,7.04,6.61,10.31,9.89,3.2,3.35,7.48,5.35,9.71,9.34,4.11,1.96,6.36,5.71,9.06,8.75,2.69,3.06,6.2,5.02,8.41,8.14,3.39,1.85,4.99,5.4,7.72,7.5,2.06,2.81,4.86,4.6,7,6.85,2.41,1.96,4.49,4.01,6.26,6.15,1.95,1.94,3.78,3.76,5.48,5.44,10.18,10.16,15.59,15.89,15.24,16.26Z"/>
      <path class="cls-1" d="M241.99,335.48c-.51,.06-1.17-1.33-1.94-3.94-.12-.43-.25-.9-.39-1.4-.19-.5-.41-1.02-.41-1.6,.59-.65-1.38-1.02-.43-1.78,.22-.67-.13-1.3-.44-1.97-.32-.66,.25-1.47-.46-2.14-1.39-.59,1.26-1.7-.47-2.31-.45-.76-.46-1.6-.48-2.47,.89-.98-.21-1.73-.49-2.62,1.09-1.05,.45-1.92-.5-2.77,1.52-1.16,1.15-2.1-.5-2.91-.18-.99,.34-2.09-.51-3.04-.24-1.03-.67-2.05-.51-3.17-1.23-.95-1.32-2.05-.52-3.28-1.31-.97-.98-2.17-.52-3.4,.52-1.23-1.32-2.2-.52-3.51-.07-1.2-.56-2.36-.52-3.61,.33-1.28,.72-2.58-.52-3.7-.44-1.21-.99-2.43-.52-3.79-1.41-1.12-1.01-2.48-.51-3.86-.36-1.28,.36-2.7-.5-3.94,.03-1.35-.88-2.59-.49-4,.21-1.39,.41-2.77-.49-4-.96-1.23,.01-2.68-.46-3.94,1.02-1.45-.7-2.55-.43-3.87-.27-1.26,.37-2.63-.41-3.8-.37-1.22-.75-2.43-.39-3.71-1.96-1,.17-2.48-.37-3.62,.62-1.28-.41-2.35-.34-3.53-.48-1.12,.55-2.4-.32-3.43,.01-1.13-.85-2.15-.29-3.31-1.03-.97,.49-2.24-.27-3.2-.12-1.04-.31-2.06-.24-3.08,1.29-1.17,0-2-.21-2.94,.03-.97-1.03-1.78-.19-2.81,0-.92,.52-1.88-.16-2.66-.31-.83,1.85-1.94-.13-2.51-.43-.77,1.25-1.76-.11-2.36-1.25-.61-.04-1.49-.07-2.18-.02-.7-.03-1.37-.05-2.02-.09-5.77,.23-9.13,.98-9.22,.84-.1,2.12,3.84,3.63,10.68,.15,.69,1.22,1.29,.46,2.14,.09,.76,.94,1.43,.47,2.31,1.41,.64,.44,1.6,.48,2.47,.17,.84-.14,1.78,.49,2.62,.87,.81-.15,1.88,.5,2.77-.69,1.05-.36,2,.51,2.91-.66,1.09,.41,2,.51,3.04-1.08,1.19-.1,2.15,.51,3.17,.57,1.03,.09,2.21,.52,3.29-.1,1.15,.58,2.22,.52,3.41,.71,1.08,1.06,2.23,.52,3.51,.54,1.14,.37,2.39,.52,3.61,.63,1.16,.24,2.47,.52,3.7,.4,1.22-.98,2.67,.51,3.79,.33,1.26,.11,2.59,.51,3.86,0,1.32-.02,2.66,.51,3.94-1.15,1.48-.18,2.72,.5,4,.54,1.3,.52,2.65,.48,4,.29,1.31,.39,2.62,.46,3.94,.55,1.25-.25,2.66,.44,3.87,.71,1.21-.29,2.62,.42,3.8,.53,1.2,.9,2.41,.39,3.72,.15,1.22-.9,2.57,.37,3.62,.4,1.16,2.03,2.15,.34,3.53,.6,1.1-.6,2.41,.32,3.43-1.21,1.29,.2,2.23,.29,3.31-.12,1.12-.44,2.23,.27,3.2,.77,.96-.09,2.1,.24,3.07,.89,.9-.76,2.1,.21,2.95-.06,.97,.35,1.87,.19,2.81,1.92,.68,.21,1.78,.16,2.66-.15,.89,1.4,1.54,.13,2.51,1.47,.64,.38,1.56,.11,2.35-.31,.8,.76,1.4,.07,2.18,1.04,.58-.37,1.42,.04,2.02-.57,.71,.11,1.24,0,1.83,.29,.55,.28,1.1-.01,1.65-.02,.52-.04,1-.05,1.45-.13,2.71-.43,4.23-.94,4.29Z"/>
      <path class="cls-1" d="M241.92,335.42c.06,.51-3.84,1.45-11,2.91-1.19,.25-2.47,.51-3.84,.78-1.36,.34-2.81,.71-4.36,.89-1.66-.42-2.99,1.73-4.86,1-1.76-.01-3.5,.58-5.33,1.13-1.82,.57-3.89,.27-5.78,1.27-1.75,1.67-4.38-.62-6.2,1.43-2.08,.79-4.31,1.17-6.6,1.61-2.5-.46-4.61,1.07-6.95,1.84-2.69-.57-5.02,.6-7.26,2.12-2.93-.87-5.45,.17-7.46,2.51-2.48,.92-5.29,1.31-7.39,3.12-.58,.31-1.15,.64-1.69,.99l-.2,.13c-.06,.04-.16,.11-.15,.1l-.1,.09-.2,.18c-.24,.25-.5,.42-.83,.79,.34,.19,.7,.26,.94,.27,.25,.02,.38,0,.43,.03,.06,.03,.07,.1,.11,.24l.03,.12,.02,.07s-.02,.03,.09,.09c.3,.18,.6,.37,.89,.56,2.95-.51,5.75,.33,8.76,1.24,3.02,.95,6.26-.58,9.42,.47,3.21,.18,6.48-.14,9.79,.03,3.31,.46,6.71,.92,10.07-.3,3.39-.42,6.8-.99,10.31-.56,3.39-1.48,6.92-1.18,10.51-.81,3.52-.5,7.18,.05,10.7-1.02,3.62-.18,7.15-1.33,10.86-1.24,3.68-.06,7.35-.18,10.83-1.42,3.46-1.31,7.17-.72,10.63-1.59,3.7,.6,6.91-1.55,10.4-1.76,3.39-.74,6.94-.61,10.14-1.94,3.29-.9,6.51-1.86,9.84-2.14,2.78-2.55,6.49-1.13,9.49-2.39,3.3-.13,6.07-1.91,9.03-2.74,1.39-.67,2.88-1,4.32-1.42,1.43-.41,2.82-.93,3.88-1.9,.31-.15,.62-.3,.9-.47,.09-.06,.07-.04,.1-.07l.06-.04,.1-.09c.12-.12,.21-.26,.29-.38,.13-.25,.35-.43,.65-.9-.41-.09-.59-.11-.7-.21-.11-.09-.15-.23-.26-.39-.05-.08-.11-.16-.2-.24-.04-.04-.08-.07-.13-.11-.07-.04-.27-.12-.41-.17-.61-.21-1.26-.36-1.94-.33-2.6-.55-5.29-.81-7.92-1.25-2.54-1.66-5.29-.63-7.85-.64-2.58-.25-5.11,.67-7.55-.31-2.46-.13-4.87-.73-7.2-.11-2.32,.25-4.66-1.95-6.79,.03-2.17,.42-4.38-1.27-6.37,.11-1.98,1.28-4.02,.09-5.92,.17-1.9,.07-3.71,.13-5.44,.19-15.61,.64-24.6,1.18-24.69,.39-.05-.42,2.65-1.18,7.74-2.13,5.09-.94,12.57-2.06,22.09-3.04,1.9-.19,3.84-1.3,5.95-.56,2.06-.1,4.18-.97,6.43-.48,2.17-1.4,4.52-.4,6.89-.38,2.37-.11,4.82,.29,7.33-.23,2.53-.75,5.1,.44,7.78,0,2.63,.91,5.33,.85,8.21,.36,2.73,1.05,5.71,.44,8.73,1.09,1.85,1.66,8.57,2.04,10.64,6.13,.49,1.02,.62,2.25,.34,3.34-.27,1.09-.86,2.1-1.68,3.02-.81,.93-1.86,1.75-2.97,2.5l-.84,.55-.43,.27-.39,.23c-.36,.23-.73,.46-1.09,.68-3.1,1.35-5.93,3.03-9.11,3.94-2.91,1.63-6.04,2.81-9.43,3.05-3.1,1.29-6.45,1.82-9.75,2.62-3.2,1.27-6.68,1.48-10.05,2.31-3.36,.96-7.08,.11-10.31,2.08-3.45,.81-7.04,1.04-10.56,1.86-3.59,.41-7.21,.77-10.78,1.65-3.81-.8-7.35,.49-10.98,1.46-3.65,.84-7.35,1.05-11.01,1.24-3.63,.51-7.26,.78-10.86,1-3.57,.69-7.2,0-10.7,.74-3.5,.78-7.06-.21-10.51,.48-3.45,.51-6.9,.81-10.3,.17-3.41,.03-6.75-1.2-10.1-.18-3.32,.15-6.77,1.47-9.9-.69-1.66,.08-3.27-.34-4.87-.76-1.61-.42-3.18-.85-4.92-.86-.38-.27-.75-.49-1.15-.7-.07-.05-.26-.12-.4-.19l-.45-.19c-.28-.13-.57-.25-.87-.38-1.14-.5-2.27-.99-3.27-1.61-1-.62-1.89-1.35-2.51-2.28-.63-.92-.92-2.11-.79-3.22,.4-2.22,2.06-3.95,4.02-5.37l.74-.52,.78-.49c.25-.17,.51-.32,.78-.48l.56-.34c.68-.42,1.34-.85,1.97-1.31,2.52-1.93,5.64-2.03,8.21-3.17,2.43-1.67,5.58-.77,7.89-2.33,2.6-.57,5.03-1.52,7.54-1.88,2-2.38,4.83-1.18,7.17-1.55,2.36-.27,4.31-2.19,6.78-1.29,1.9-1.8,4.25-1.06,6.35-1.08,2.1,0,3.89-1.32,5.91-.9,1.72-1.28,3.78-.12,5.45-.74,1.83,.34,3.37-.52,4.96-.59,1.53-.46,3.02-.61,4.45-.47,1.4-.12,2.71-.23,3.93-.34,7.32-.58,11.34-.54,11.4-.05Z"/>
      <path class="cls-1" d="M222.31,169.62c-.38,.33-2.91-1.82-7.18-6.04-.71-.71-1.48-1.47-2.29-2.29-.85-.77-1.76-1.59-2.56-2.61-.34-1.42-2.68-1.18-2.84-2.95-.72-1.27-1.91-2.22-3.11-3.24-1.2-1.03-1.77-2.69-3.35-3.56-2.1-.41-1.17-3.55-3.59-3.84-1.46-1.13-2.62-2.61-3.82-4.12-.52-2.11-2.57-2.96-4.05-4.38-.44-2.33-2.21-3.57-4.25-4.64-.17-2.71-1.81-4.2-4.45-4.88-1.52-1.67-2.55-3.82-4.64-5.11-1.63-1.7-3.43-3.31-4.82-5.34-2.44-1.11-4.03-3.02-4.98-5.54-2.56-1.13-3.89-3.37-5.14-5.75-1.21-2.4-4.24-3.28-5.29-5.92-1.7-2.07-3.76-3.9-5.42-6.11-1.44-2.4-2.86-4.85-5.55-6.26-2.08-1.93-4.25-3.82-5.66-6.42-2.84-1.34-4.34-3.9-5.76-6.55-2.09-2.08-3.36-4.9-5.86-6.69-1.82-2.38-4.36-4.15-5.94-6.8-1.7-2.54-3.41-5.04-5.93-6.82-2.58-1.72-3.66-4.7-5.83-6.71-1.04-3-4.13-4.16-5.71-6.61-1.98-2.1-3.25-4.77-5.58-6.48-2.02-1.99-4.03-3.94-5.45-6.35-3.19-.88-3.25-4.43-5.31-6.2-1.19-2.53-3.59-3.95-5.15-6.04-.98-.87-1.68-1.98-2.4-3.06-.36-.54-.73-1.07-1.15-1.55-.28-.31-.26-.26-.36-.33-.08-.04-.18-.05-.28-.02l-.05-.08c-.14-.03-.3-.01-.44,.02,.01,0-.18,0-.32,0h-.45s-.9,0-.9,0c-1.18-.02-2.35-.12-3.49-.54-2.5,.72-4.77-1.12-7.16-.66-2.34-.18-4.64-.29-6.87-.66-2.14-1.58-4.42-.58-6.57-.64-2.13-.32-4.3,.49-6.26-.63-2.03-.27-3.97-1.04-5.94-.62-1.94,.07-3.64-2.34-5.59-.6-1.84,.2-3.45-1.72-5.23-.58-1.77,1.04-3.3-.39-4.85-.56-1.55-.18-3.04-.37-4.46-.53C7.24,2.78-.06,1.51,0,.75,.06-.1,9.21-.2,24.84,.31c1.56,.05,3.26-.82,4.88,.17,1.69,.14,3.49-.5,5.25,.21,1.91-1.18,3.7,.03,5.62,.25,1.93,.08,3.88,.66,5.96,.28,2.1-.61,4.1,.69,6.28,.32,2.08,.97,4.3,.92,6.6,.34,2.18,.96,4.55,.17,6.89,.39,2.26,1.38,4.71,.72,7.18,.42,1.18-.13,2.34,0,3.52,.14l.88,.12,.44,.05,.57,.06c1.05,.1,2.1,.17,3.19,.2l.44,.45c.36,.45,.71,.89,1.08,1.33,.34,.4,.82,.95,.96,1.1,.43,.47,.88,.93,1.33,1.39,.91,.91,1.82,1.83,2.6,2.89,2.14,1.59,4.05,3.44,5.29,5.93,2.06,1.76,3.61,4.02,5.42,6.1,2.17,1.76,3.6,4.22,5.54,6.27,2.05,1.96,2.76,5.12,5.66,6.41,2.02,2.06,3.65,4.5,5.77,6.55,1.81,2.32,3.62,4.68,5.86,6.69,.97,3.13,3.56,4.86,5.94,6.8,2.28,2.03,4.11,4.43,5.93,6.81,2.06,2.17,3.96,4.45,5.82,6.72,2.23,1.96,3.41,4.78,5.71,6.6,2.31,1.81,3.31,4.72,5.58,6.49,2.14,1.88,4.13,3.84,5.45,6.35,1.81,2.08,2.69,4.92,5.3,6.21,1.96,1.85,4.83,2.86,5.15,6.04,2.06,1.67,2.73,4.49,4.99,5.87,.64,2.79,3.24,3.82,4.81,5.69,1.41,2.02,2.64,4.11,4.63,5.5,2.03,1.35,2.79,3.74,4.44,5.29,2.06,1.19,2.16,4.03,4.23,5.08,1.28,1.73,2.88,3.12,4.01,4.85,2.72,.34,2.64,3.04,3.79,4.6,1.08,1.63,3.41,2.07,3.56,4.35,2.23,.47,2.48,2.57,3.32,4.08,.81,1.54,2.62,2.12,3.06,3.81,1.76,.54,1.61,2.66,2.8,3.52,.46,1.5,1.81,2.13,2.53,3.21,1.01,.83,1.76,1.8,2.24,2.9,.69,.91,1.34,1.78,1.95,2.57,3.61,4.82,5.39,7.62,5.01,7.95Z"/>
      <path class="cls-1" d="M314.03,67.71c.27,.43-1.45,2.07-4.98,4.44-.59,.4-1.23,.81-1.92,1.24-.66,.5-1.37,1-2.22,1.35-1.1-.19-1.15,1.94-2.51,1.44-1.04,.17-1.89,.84-2.8,1.51-.92,.66-2.24,.52-3.09,1.56-.61,1.66-2.8-.39-3.38,1.59-1.06,.8-2.34,1.21-3.66,1.6-1.63-.45-2.61,.95-3.93,1.59-1.76-.64-3,.29-4.21,1.56-1.96-1.12-3.34-.43-4.47,1.49-1.55,.47-3.28,.3-4.74,1.39-.8,.24-1.61,.55-2.43,.8-.83,.23-1.68,.42-2.57,.45-1.49,1.46-3.31,1.7-5.25,1.1-1.62,1.41-3.55,1.28-5.5,.85-.97-.23-1.88,.15-2.83,.45-.94,.3-1.9,.54-2.9,.14-.97,.05-1.96,.12-2.94,.21-.99,.07-1.98,.18-2.99,.05-1.01-.27-2-.54-3.02-.62-1.01-.08-2.03-.04-3.1,.45-.52,.05-1.04,.08-1.57,.12-.53,.02-1.05,0-1.58-.02-1.05-.07-2.1-.23-3.1-.71-2.29,.89-4.39,0-6.34-1.2-2.18-.23-4.05-1.82-6.33-1.74-1.83-.75-3.89-.62-5.73-1.55-1.84-.88-3.82-1.51-5.88-1.14-2.08,.58-3.89-.85-5.91-.65-1.89-1.37-3.95,.15-5.87-.34-.97,0-1.94-.12-2.91-.24-.97-.09-1.93-.17-2.88,.21-1.91,.29-3.78,.57-5.68,.22-.87,.98-1.8,.91-2.74,.7-.95-.2-1.91-.58-2.81-.3-1.92-.6-3.61,.56-5.41,.56-1.71,.6-3.64-.31-5.24,.7-1.74,.15-3.28,1.15-5.06,.8-1.47,1.2-3.42-.1-4.87,.88-1.58,.33-3.11,.75-4.67,.92-1.85-1.04-3.05,.5-4.46,.95-1.49,.21-2.63,1.54-4.24,.97-1.39,.26-2.89,.05-4.02,.97-1.21,.57-3.12-1.22-3.77,.95-1.09,.7-2.8-.65-3.53,.92-.75,1.48-2.23,.58-3.28,.87-1.05,.29-2.05,.56-3.01,.82-8.64,2.36-13.62,3.76-13.92,3.05-.34-.78,5.24-4.08,15.48-8.22,1.02-.41,1.8-1.72,3.21-1.26,1.14-.35,2.09-1.46,3.49-1.29,.84-1.63,2.42-.99,3.75-1.3,1.3-.43,2.76-.43,4.01-1.31,1.2-1.11,2.92-.41,4.26-1.3,1.68,.41,3.13-.18,4.51-1.27,1.73,.39,3.1-.91,4.74-1.22,1.88,.82,3.36-.34,4.98-1.15,1.61-.79,3.48-.44,5.2-1.06,1.81-.07,3.54-.87,5.42-.94,1.77-.79,3.64-1.29,5.62-.78,1.87-.59,3.85-.46,5.83-.58,1.94-.66,3.99-.16,6.01-.37,1.01-.19,2.05,.18,3.07,.35,1.03,.19,2.05,.2,3.11-.42,2.1-.1,4.18,.34,6.34,.29,2.12,.29,4.24,.79,6.46,.68,1.96,1.69,4.23,1.18,6.53,1.23,2.28,.08,4.4,.95,6.46,1.78,1.02,.24,1.91,.48,2.85,.77,.91,.31,1.85,.56,2.78,.81,1.94,.11,3.67,1.34,5.63,1.14,.98-.14,1.9,.09,2.82,.37,.46,.12,.92,.26,1.39,.33,.47,.06,.94,.06,1.42-.05,.95-.14,1.88-.2,2.8-.2s1.84,.13,2.76,.47c.92,.04,1.84,.27,2.76,.41,.92,.13,1.84,.15,2.7-.49,.9-.19,1.75-.69,2.62-.93,.86-.25,1.74-.28,2.71,.55,1.69-.61,3.59,.42,5.17-.59,1.91,1.02,3.38-.49,4.99-.81,.83-.04,1.68-.04,2.49-.14,.82-.11,1.59-.34,2.3-.81,1.4-.98,3.16-.46,4.59-1.06,1.26-1.16,3.22,.11,4.37-1.15,1.46-.29,2.73-.99,4.14-1.21,.72-2.17,2.6-.91,3.91-1.23,1.35-.21,2-2.05,3.67-1.23,.64-1.73,2.19-1.11,3.41-1.21,1.23-.09,1.87-1.44,3.17-1.17,.57-1.33,2.15-.38,2.9-1.11,1.17,.15,1.76-.79,2.63-1.03,.71-.59,1.5-.89,2.37-.93,.74-.29,1.44-.57,2.08-.83,3.89-1.53,6.06-2.31,6.33-1.88Z"/>
    </g>
  </g>
</svg>