<?xml version="1.0" encoding="UTF-8"?>
<svg id="Capa_2" data-name="Capa 2" xmlns="http://www.w3.org/2000/svg" viewBox="0 0 525.39 440.53">
  <defs>
    <style>
      .cls-1 {
        fill: #c14f4d;
      }
    </style>
  </defs>
  <g id="Capa_1-2" data-name="Capa 1">
    <g>
      <path class="cls-1" d="M293.83,194.86c10.51,.01,20.7,1.99,30.37,6.02,18.58,7.75,33.77,29.58,26.85,53.39-2.02,6.95-5.33,13.18-10.19,18.62-11.23,12.53-25.03,20.38-41.57,23.59-10.61,2.06-9.91,.04-10.86,12.05-1.18,14.95-3.58,29.67-9.45,43.62-4.64,11.04-11.32,20.4-21.88,26.58-10.43,6.1-23.93,4.49-32.4-3.94-.68-.68-1.3-1.46-1.82-2.27-1.46-2.27,.25-5.51,2.98-5.87,2.36-.31,4.42,.7,6.62,1.21,8.26,1.88,14.75-.69,19.4-7.7,2.88-4.34,5.43-8.93,6.33-14.15,2.51-14.41,4.95-28.84,4.86-43.54-.04-6.14-.1-6.15-5.9-8.12-14.57-4.94-25.53-14.24-32.15-28.05-6.11-12.75-6.67-26.31-3.49-39.98,4.21-18.08,13.05-33.82,24.75-48.07,1.44-1.76,2.77-3.66,4.45-5.16,4.27-3.83,5.26-8.44,4.64-14.01-1.71-15.24-.97-30.52-.06-45.78,.47-7.81,1.54-15.53,3.99-22.99,3.68-11.2,10.11-20.22,20.49-26.28,9.39-5.48,18.87-3.42,25.26,5.67,5.15,7.32,6.08,15.67,5.92,24.19-.17,9.21-2.74,17.92-6.67,26.24-5.3,11.23-11.95,21.62-20.08,30.96-3.01,3.46-4.27,6.91-3.8,11.44,.97,9.36,1.57,18.75,2.39,28.13,.28,3.16,1.24,4.09,4.17,4.18,2.27,.07,4.55,.02,6.82,.02Zm-4.67,64.46c.87,6.03,1.08,14.47,1.09,22.93,0,3.94,.79,4.65,4.54,4.35,14.27-1.12,26.06-7.44,35.86-17.61,16.01-16.61,14.25-41.37-5.83-54.61-11.02-7.26-23.64-8.47-36.33-9.18-2.81-.16-3.87,1.31-3.61,4.5,.63,7.77,1.36,15.53,2.07,23.3,.09,.97,.27,1.93,.48,2.88,.62,2.68,2.12,3.92,4.88,3.54,4.18-.57,8.32-1.43,12.48-2.12,1.91-.32,3.85-.81,5.76-.73,2.23,.08,4.66,.36,5.57,3.03,.77,2.26-.79,5-3.75,5.89-3.09,.93-6.3,1.48-9.48,2.03-2.23,.39-4.54,.35-6.77,.76-7.36,1.36-7.35,1.41-6.96,11.04Zm-30.78-64.19c-.27-3.56-.49-7.11-.83-10.66-.08-.87-.09-2.2-1.4-2.1-.82,.06-1.8,.62-2.35,1.27-10.06,11.65-17.92,24.57-22.66,39.29-2.42,7.5-3.34,15.24-2.53,23.04,1.79,17.05,9.92,29.87,25.86,37.14,1.45,.66,3.02,1.12,4.58,1.49,1.76,.42,3.27-.74,3.21-2.59-.25-7.77-1.08-15.56-.8-23.3,.25-7.12-1.69-11.73-8.33-15.54-8.59-4.93-10.91-14.32-7.68-23.79,1.71-5.02,4.5-9.47,8.94-12.39,3.84-2.53,4.95-5.69,4.13-9.91-.12-.63-.09-1.29-.13-1.94Zm20.67-76.27c0,6.17-.02,12.35,.03,18.52,0,.87-.13,2.23,1.24,2.16,.8-.04,1.79-.67,2.31-1.33,4.82-6.15,9.11-12.69,12.57-19.66,5.09-10.28,8.58-21.02,7.25-32.83-.48-4.31-1.74-8.24-3.92-11.91-2.85-4.79-7.42-5.14-11.11-1.03-4.11,4.57-5.26,10.32-6.51,16.02-2.18,9.92-2.12,20-1.84,30.07Zm-6.74-29.18c-3.67,3.38-4.09,7.74-4.79,11.69-3.02,17.06-3,34.29-2.24,51.53,.04,.82-.04,1.92,1.33,2.16,1.18,.2,1.8-.52,2.48-1.16,2.14-2.06,1.81-4.72,1.72-7.32-.64-17.89-.45-35.74,1.87-53.53,.12-.92-.19-1.9-.36-3.37Zm-2.18,177.75c.08,0,.16,0,.25-.01,.21,4.5,.41,8.99,.63,13.49,.06,1.28,.06,2.58,.27,3.84,.36,2.15,2.52,3.4,5.19,3.16,2.05-.18,2.73-1.72,2.71-3.31-.13-10.6-.36-21.21-.63-31.81-.06-2.36-1.59-3.21-3.8-3.37-4.28-.3-5.41,.51-5.31,4.53,.11,4.5,.45,8.99,.7,13.48Zm-4.51,88.75c1.25-.97,1.97-1.25,2.22-1.76,8.14-16.69,9.31-34.78,10.47-52.85,.14-2.19-1.58-3.45-3.8-3.26-1.94,.17-2.81,1.32-2.8,3.17,.08,10.69-.6,21.33-2.39,31.88-1.24,7.29-2.37,14.59-3.7,22.81Zm10.66-131.01c-.37-3.95-.83-9.11-1.34-14.27-.13-1.35-.74-2.41-2.27-2.64-1.95-.29-4.18,1.02-4.55,2.71-.07,.32-.19,.64-.18,.95,.31,8.09,.62,16.18,.96,24.26,.01,.31,.18,.63,.32,.91,1.04,2.08,2.98,2.24,4.95,2.19,2.04-.06,2.8-1.46,2.75-3.21-.08-3.24-.36-6.47-.63-10.92Zm-3.45-42c.09,0,.18-.01,.28-.02-.33-4.82-.62-9.65-1.03-14.46-.04-.47-.72-1.01-1.22-1.29-1.13-.65-1.87,.29-2.34,1.01-.68,1.03-1.51,2.27-1.5,3.41,.11,8.07,.39,16.14,.69,24.21,.06,1.62,2.04,2.31,3.73,1.56,1.69-.75,2.43-1.99,2.28-3.79-.29-3.54-.59-7.08-.89-10.63Zm-13.21,40.57c-.03-.29-.24-2.55-.44-4.8-.07-.83-.54-1.23-1.35-.99-.58,.17-1.37,.41-1.59,.86-.87,1.73-1.79,3.5-2.26,5.36-.86,3.41,.25,6.41,2.68,8.89,.39,.4,1.17,.69,1.7,.61,.47-.07,1.18-.72,1.2-1.14,.12-2.27,.06-4.54,.06-8.79Zm4.24,135.85l.44,.32,.07-.5-.51,.18Z"/>
      <path class="cls-1" d="M151.61,204.03c.01,4.94-.96,9.68-2.9,14.21-4.03,9.42-13.3,15.81-24.88,15.44-8.38-.27-13.93-4.92-16.8-12.59-4.05-10.81-2.65-21.13,3.98-30.52,5.16-7.31,12.19-12.42,20.41-16.02,7.55-3.3,7.91-3.17,5.25-11.51-3.55-11.11-6.83-22.32-10.18-33.5-.71-2.37-2.27-2.96-4.45-2.36-25.37,6.96-51.32,11.23-76.98,16.88-1.9,.42-3.78,.92-5.64,1.45-1.77,.51-2.69,1.73-2.55,3.59,.17,2.27,.32,4.54,.68,6.78,1.92,11.86,3.98,23.69,5.85,35.55,1.76,11.22,3.49,22.44,4.94,33.71,.53,4.16,.52,8.45,.23,12.64-1,14.6-10.77,22.84-25.46,21.75-.65-.05-1.29-.11-1.94-.19-16.42-2.06-25.09-16.35-19.4-32.04,3.61-9.96,10.7-16.82,19.73-21.96,4.13-2.35,9.27-2.95,12.4-7.05-.63-4.81-1.19-9.62-1.91-14.42-2.07-13.78-4.37-27.54-6.25-41.35-.7-5.12-.52-10.37-.64-15.56-.09-4.01,1.85-6.76,5.57-8.28,2.4-.98,4.7-2.33,7.19-2.95,13.22-3.29,26.38-6.88,39.75-9.44,14.01-2.68,28.21-4.38,42.34-6.4,5.42-.77,7.88,.7,9.91,5.62,.74,1.79,1.22,3.7,1.75,5.57,3.43,12.17,6.5,24.44,10.32,36.48,5.54,17.47,8.01,35.41,9.58,53.55,.08,.97,.1,1.95,.15,2.92Zm-113.08,26.76c.16-.01,.32-.03,.49-.04-.77-5.75-1.49-11.51-2.34-17.25-.42-2.83-2.38-3.88-4.81-2.48-6.48,3.71-12.35,8.24-17.25,13.9-1.03,1.19-1.81,2.7-2.39,4.18-4.25,10.86,2.02,19.75,13.6,19.36,7.65-.26,11.91-4.19,12.67-11.86,.19-1.92,.03-3.87,.03-5.81Zm101.66-47.63c-9.46,2.01-14.66,5.6-19.84,13.08-3.52,5.08-4.7,10.59-3.82,16.63,1.31,8.91,9.28,12.29,16.49,6.98,1.87-1.37,3.44-3.05,4.21-5.24,3.59-10.22,5.22-20.62,2.96-31.45Zm-101.99-49.07c4.03-.79,9.1-1.79,14.18-2.76,22.26-4.29,43.66-11.92,65.77-16.82,2.6-.58,3.69-2.18,3.05-3.96-.7-1.95-2.26-2.03-3.92-1.88-.97,.08-1.94,.15-2.89,.34-8.87,1.8-17.68,3.92-26.6,5.38-16.6,2.72-32.4,9.12-49.27,10.54-3.81,.32-5.12,2.87-4.1,7.04,.35,1.41,1.21,2.22,3.79,2.13Z"/>
      <path class="cls-1" d="M490.9,284.35c-11.45-.7-11.34-.67-13.58,7.66-4.37,16.32-7.72,32.86-11.48,49.32-4.05,17.72-8.75,35.29-13.47,52.85-2.79,10.4-7.53,20.08-12.94,29.34-7.47,12.78-18.85,18.34-33.59,16.75-15.16-1.64-25.64-11.99-26.75-27.25-1.08-14.79,.98-29.37,7.88-42.62,7.86-15.09,21.67-24.7,41.71-22.69,7.81,.78,8.9,1.45,10.29-8.03,2.31-15.73,5.19-31.38,8.09-47.02,.95-5.1,2.96-9.95,5.4-14.57,2.99-5.67,7.67-8.75,14.05-8.85,3.89-.06,7.79,.3,11.67,.55,4.54,.3,9.07,.7,13.6,1.03,5.58,.4,10.98-.45,16.28-2.25,3.37-1.15,6.79-2.21,10.26-2.99,3.18-.72,5.6,.48,6.61,2.76,.97,2.17,.32,5.15-1.86,7.03-2.71,2.33-5.66,4.48-9.18,5.34-8.52,2.09-17.11,3.89-23,3.66Zm-68.9,139.49c1.5,.95,2.98,1.19,4.39-.16,2.85-2.72,5.02-5.94,6.81-9.42,3.85-7.51,7.41-15.17,9.63-23.33,3.33-12.19,6.61-24.4,9.53-36.69,3.51-14.82,6.4-29.78,9.99-44.58,1.98-8.17,4.86-16.12,7.31-24.18,.4-1.3,.35-2.66-.98-3.39-1.19-.65-2.48-.33-3.71,.24-1.96,.92-2.55,2.81-3.42,4.54-3.98,7.94-5.34,16.63-7.12,25.18-4.15,19.98-6.29,40.35-11.89,60.05-3.72,13.09-7.12,26.28-12.66,38.76-2.07,4.66-3.98,9.53-7.97,13.05,.05,.18,.1,.36,.15,.53-.03-.21-.05-.41-.08-.62Zm-32.19-22.39c-.43,6.83,.03,12.54,2.31,18.13,2.98,7.31,11.73,10.27,18.12,3.62,3.89-4.05,6.93-8.65,9.1-13.71,6.52-15.25,11.42-31.05,14.99-47.24,.56-2.53-.25-4.01-2.54-4.28-17.8-2.07-27.46,2.75-35.28,16.37-4.92,8.57-7.36,18.01-6.71,27.11Z"/>
      <path class="cls-1" d="M486.01,36.04c-.64,13.34-2.78,26.5-4.6,39.68-2.66,19.3-5.69,38.52-11.13,57.31-3.75,12.96-9.69,24.74-17.63,35.54-5.25,7.14-12.31,11.52-21.23,12.36-9.51,.9-17.19-2.49-22.55-10.55-8.83-13.27-10.92-40.8,3.96-57.53,6.89-7.76,15.54-12.78,25.8-14.53,6.39-1.09,12.9-1.46,19.36-2.12,2.26-.23,4.54-.32,6.79-.62,1.75-.23,2.92-1.28,3.22-3.1,1.22-7.37,2.65-14.71,3.61-22.11,1.55-11.91,2.81-23.86,4.15-35.8,.36-3.24,.62-6.49,2.03-9.48,.91-1.93,2.59-2.98,4.69-2.74,2.19,.25,3.45,1.74,3.51,3.95,.1,3.24,.02,6.49,.02,9.73Zm-74.15,106.62c.4,6.91,1.08,14.32,5.5,20.82,1.51,2.23,3.23,4.22,5.79,4.98,7.44,2.22,14.87,1.92,20.23-5.05,2.38-3.09,4.56-6.27,6.1-9.93,4.42-10.49,7.63-21.39,11.3-32.14,5.78-16.92,5.47-14.72-11.94-14.12-3.86,.13-7.87,.66-11.5,1.93-15.38,5.35-25.16,15.42-25.48,33.5Z"/>
      <path class="cls-1" d="M52.41,408.3c1.27-.12,3.54-.22,5.79-.54,6.1-.87,9.12-3.81,10.2-9.93,.28-1.59,.36-3.23,.42-4.85,.18-4.93,1.6-9.56,3.16-14.2,1.75-5.19,4.99-9.07,9.46-11.97,6.33-4.1,13.2-6.85,20.64-8.29,6.37-1.23,12.86-1.62,19.15-3.44,7.73-2.24,12.19-6.97,13.39-14.91,.53-3.53,1-7.11,1.97-10.54,5.08-18.03,21.55-20.61,33-15.21,1.22,.58,2.01,1.67,1.89,3.1-.13,1.51-1.24,2.19-2.61,2.37-3.22,.41-6.47,.56-9.66,1.14-7.43,1.34-12.31,5.53-13.89,13.13-.73,3.49-1.42,6.99-2.16,10.48-2.35,10.98-9.17,17.68-19.96,20.2-6.31,1.47-12.75,2.36-19.12,3.58-2.54,.48-5.08,1.01-7.56,1.75-10.43,3.11-16.13,10.37-17.99,20.88-.62,3.51-.99,7.08-1.83,10.53-2.33,9.51-8.74,14.96-18.06,16.96-5.73,1.23-11.58,1.82-17.19-.91-1.86-.91-3.38-2.11-3.19-4.37,.17-2.15,1.62-3.39,3.56-4.19,3.13-1.28,6.35-1.15,10.61-.76Z"/>
      <path class="cls-1" d="M198.36,86.94c.26-2.61,.9-7.77,1.23-12.95,.46-7.18-1.39-10-8.02-12.67-2.4-.97-5.02-1.48-7.29-2.68-9.37-4.93-14.46-11.85-12.46-22.79,.41-2.23,.97-4.44,1.4-6.67,.68-3.51,.98-7.03,.73-10.64-.33-4.64-2.15-8.07-6.59-9.86-1.2-.49-2.45-.9-3.57-1.53-1.56-.88-2.34-2.4-1.76-4.08,.69-1.99,2.44-3.43,4.5-2.98,6.66,1.46,12.05,4.86,14.57,11.55,1.86,4.94,2.35,10.09,1.41,15.33-.69,3.83-1.52,7.65-1.98,11.51-.64,5.27,.89,7.99,5.62,10.03,2.37,1.02,4.97,1.48,7.4,2.39,11.86,4.43,16.8,12.09,15.93,24.78-.27,3.88-.93,7.74-1.25,11.61-.49,5.86,1,10.94,6.1,14.48,.53,.37,1.02,.8,1.53,1.21,1.62,1.3,2.68,2.91,2.06,5.05-.66,2.26-3.67,3.56-6.48,3.13-2.03-.31-3.68-1.32-5.09-2.67-5.38-5.17-8.74-11.25-7.98-21.55Z"/>
    </g>
  </g>
</svg>