<?xml version="1.0" encoding="UTF-8"?>
<svg id="Capa_2" data-name="Capa 2" xmlns="http://www.w3.org/2000/svg" viewBox="0 0 1617.6 445.66">
  <defs>
    <style>
      .cls-1 {
        fill: #d2847c;
      }
    </style>
  </defs>
  <g id="Capa_1-2" data-name="Capa 1">
    <path class="cls-1" d="M1616.72,213.14c-11.2-92.88-96.63-181.58-188.44-199.56-215.79-42.26-463.86,20.34-668.17,101.63-58.99,23.47-116.37,51.92-177.97,67.29-110.48,27.57-226.39,11.36-340.21,7.96-55.38-1.65-113.07,.3-162.45,25.44C30.11,241.05-8.37,295.45,1.57,349.96c11.55,63.32,97.56,100.45,334.65,52.13,290.4-59.19,562.71,26.88,858.69,41.97,125.89,6.42,263.89-3.3,357.64-87.55,40.49-36.39,70.67-89.32,64.16-143.36Z"/>
  </g>
</svg>