<?xml version="1.0" encoding="UTF-8"?>
<svg id="Capa_2" data-name="Capa 2" xmlns="http://www.w3.org/2000/svg" viewBox="0 0 272.94 361.19">
  <defs>
    <style>
      .cls-1 {
        fill: #c14f4d;
      }
    </style>
  </defs>
  <g id="Capa_1-2" data-name="Capa 1">
    <path class="cls-1" d="M112.43,94.76c-3.05-1.81-4.63-2.76-6.22-3.69-13.5-7.87-24.39-18.45-32.56-31.75-5.29-8.62-7.08-17.9-4.33-27.79,2.06-7.39,6.5-13.03,13.22-16.74,20.6-11.36,37.2-.1,43.83,13.1,1.05,2.1,1.84,4.33,2.81,6.48,.37,.82,.63,1.82,1.99,1.87,.61-3.87,1.13-7.77,1.85-11.63,1.01-5.4,3.16-10.36,6.48-14.76,6.35-8.44,15.09-11.02,25.08-9.37,6.01,.99,9.99,5.05,12.15,10.73,2.16,5.69,1.97,11.55,.99,17.43-.37,2.21-.78,4.42-1.35,7.67,2.69-2.12,4.43-3.64,6.31-4.95,8.84-6.16,18.47-9.3,29.33-7.24,10.29,1.95,18.84,10.47,20.54,20.85,1.95,11.96-.64,22.95-8.08,32.65-3.62,4.71-8.06,8.56-12.79,12.12-1.23,.92-3.01,1.3-3.5,3.09,1.07,1.4,2.58,.87,3.87,.89,14.86,.19,29.66,1.29,44.44,2.83,2.34,.24,4.65,.78,6.99,1.03,3.47,.38,5.5,2.44,6.73,5.48,1.71,4.19,2.53,8.6,2.67,13.09,.13,4.24,.15,8.49,0,12.73-.16,4.47-.27,9.03-4.38,12.16-1.01,.77-1,2.06-.99,3.26,.03,2.36,.06,4.71,.09,7.07,.44,38.42,.55,76.85-.41,115.26-.51,20.49-1.67,40.97-2.59,61.46-.24,5.44-1.23,10.78-2.94,15.94-2.59,7.82-7.97,12.6-16.05,14.29-8.35,1.75-16.85,1.88-25.32,2.2-32.05,1.23-64.11,.45-96.17,.22-31.12-.22-62.23-.42-93.35-.67-4.24-.03-8.49-.17-12.71-.49-2.08-.16-4.17-.71-6.18-1.33-3.92-1.2-6.4-3.96-7.39-7.87-.69-2.73-1.1-5.55-1.42-8.35-1.19-10.32-1.23-20.7-1.34-31.07-.29-29-.07-57.99,.76-86.98,.63-21.91,1.26-43.82,1.79-65.74,.11-4.7-.25-9.42-.34-14.13-.06-3.09-.32-6-2.41-8.62-1.68-2.1-1.58-4.91-1.4-7.5,.59-8.24,2.05-16.36,3.88-24.4,1-4.39,3.93-6.85,8.21-7.76,1.83-.39,3.72-.64,5.59-.71,6.36-.24,12.71-.18,19.07,.35,23.54,1.96,47.1,1.5,70.65,.07,1.15-.07,2.29-.36,4.91-.79Zm66.4-50.23c3.5-2.46,7.33-4.21,11.43-5.36,8.18-2.29,15.36-.57,21.24,5.7,5.92,6.31,8.12,13.55,5.4,22.04-1.56,4.86-4.57,8.71-8.15,12.16-4.27,4.11-9.2,7.27-14.48,9.93-1.36,.69-3.21,.85-3.54,2.87,7.76,.12,17.42-3.14,23.11-8.78,9.53-9.45,15.45-20.56,14.37-34.59-.92-11.93-10.11-20.33-22.11-19.82-10.97,.46-19.84,5.15-26.91,13.44-.7,.82-.71,1.66-.26,2.51-.17-.13-.32-.3-.51-.37-.14-.05-.33,.04-.49,.07,.31,.06,.61,.13,.92,.19Zm-70.99,38.86c-.07,.48-.48,1.21,.61,.82-.26-.23-.51-.46-.77-.69-2.73-3.21-5.5-6.38-8.17-9.64-6.17-7.54-11.29-15.64-13.69-25.26-.93-3.73-1.21-7.47-.58-11.21,1.48-8.67,8.67-12.55,16.88-9.26,3.79,1.52,6.99,3.9,9.77,6.84,6.68,7.07,12.74,14.55,15.55,24.12,.34,1.16,.34,2.82,2.61,2.65-.39-12.09-3.94-23.19-9.73-33.62-1.49-2.68-3.58-4.97-5.98-6.93-5.18-4.23-11.05-6.21-17.75-5.23-3.27,.48-6.45,1.33-9.5,2.64-4.76,2.04-8.22,5.42-10.49,10.03-3.92,7.94-4.01,16.12,0,23.84,6.64,12.78,16.08,23.18,28.58,30.59,.85,.5,1.72,.7,2.65,.29ZM9.38,242.24c-1.22,2.19-.98,3.87-.98,5.49-.04,9.89-.1,19.78-.04,29.68,.12,19.31,.15,38.63,1.47,57.9,.22,3.28,.87,6.52,1.22,9.79,.42,3.86,2.52,5.67,6.35,6.31,5.62,.93,11.27,.8,16.91,.93,28.02,.64,56.06-.04,84.07,1.17,.94,.04,1.88,.06,2.83,.03,3.27-.08,3.77-.56,3.62-3.64-.29-6.12-.71-12.23-.91-18.34-.81-25.43-.89-50.86-.76-76.3,0-1.65,.03-3.3-.08-4.94-.09-1.3-.83-2.16-2.19-2.29-.94-.09-1.88-.15-2.82-.16-14.83-.24-29.66-.56-44.48-1.41-14.11-.81-28.24-1.16-42.34-2.02-7.26-.44-14.58-.54-21.86-2.2Zm142.45,110.86c2.16,1.23,4.08,.85,5.94,.9,23.33,.62,46.65,.44,69.97-.29,5.17-.16,10.34-.71,15.47-1.37,5.91-.77,9.9-4.03,11.63-9.88,1.41-4.76,2.33-9.62,2.67-14.57,1.62-23.51,2.57-47.05,3.13-70.61,.03-1.41,.03-2.83-.12-4.23-.11-.99-.81-1.78-1.8-1.9-1.86-.24-3.75-.39-5.63-.41-7.07-.07-14.14,0-21.21-.1-22.38-.33-44.77,.19-67.14-.9-2.71-.13-3.38,.45-3.57,3.17-.46,6.58-.81,13.17-1.16,19.75-.67,12.47-1.18,24.95-1.99,37.41-.67,10.35-1.9,20.64-3.77,30.85-.75,4.12-1.63,8.21-2.41,12.18ZM65.29,204.02c0,.11,0,.22,0,.32,10.83,.42,21.66,.95,32.49,1.23,7.06,.19,14.14,.05,21.2,0,2.2-.02,2.72-.65,2.81-3.06,.05-1.41,0-2.83,0-4.24-.04-11.31-.13-22.62-.11-33.94,.02-8.25,.23-16.49,.3-24.74,.02-2.82-.49-3.34-3.2-3.44-1.88-.07-3.78,.11-5.65-.05-2.49-.21-3.84,1.06-5.06,3.03-3.98,6.4-8.09,12.72-12.16,19.06-2.81,4.37-5.96,8.49-9.53,12.26-5.68,6-12.16,11.14-18.36,16.57-.53,.46-1.1,.9-1.73,1.22-1.07,.54-2.21,.85-3.35,.14-1.13-.71-1.49-1.8-1.25-3.03,.35-1.85,.75-3.69,1.23-5.52,.71-2.73,1.55-5.43,2.23-8.17,.34-1.38-.54-2.34-1.96-2.07-4.16,.79-8.29,1.74-12.45,2.53-1.84,.35-3.71,.56-5.58,.65-.95,.04-1.81-.52-2.11-1.54-.3-.98-.04-1.91,.7-2.56,.88-.77,1.87-1.41,2.84-2.06,9.67-6.51,17.95-14.48,24.94-23.8,.99-1.32,1.89-2.7,2.76-4.1,.54-.87,.01-2.05-.94-2.13-1.64-.14-3.29-.24-4.93-.25-16.26-.08-32.52-.23-48.78-.16-8.97,.04-9.01-1.1-9.32,8.72-.56,17.66-.89,35.33-1.29,53-.12,5.47-.04,5.53,5.39,5.65,1.88,.04,3.77,0,5.66,0,15.08,.15,30.16,.31,45.24,.47Zm143.39-68.43c3.05,6.54,6.03,12.66,8.77,18.87,3.8,8.62,7.64,17.21,12.56,25.27,.73,1.2,1.36,2.49,1.79,3.82,.36,1.12,.24,2.34-.77,3.23-.96,.84-2.07,1.19-3.25,.65-1.71-.78-3.42-1.58-5.01-2.56-3.61-2.22-7.1-4.63-10.73-6.81-1.52-.91-3.06-3.14-4.88-1.88-1.59,1.1-.67,3.5-.57,5.3,.21,3.76,.64,7.5,.97,11.25,.24,2.81,.62,5.63,.64,8.44,.01,2.63-3,4.06-5.1,2.52-.93-.68-1.72-1.59-2.46-2.49-12.48-15.19-23.07-31.51-30.06-50.01-1.5-3.96-3.06-7.9-4.61-11.84-.34-.86-.65-1.8-1.23-2.48-.38-.45-1.23-.67-1.87-.69-.7-.02-1.34,.46-1.41,1.25-.12,1.4-.22,2.81-.2,4.22,.34,20.72,.69,41.43,1.05,62.14,0,.24,0,.47,.02,.71,.18,3.2,.42,3.44,3.73,3.8,18.5,1.98,37.03,3.39,55.64,3.85,11.3,.28,22.56,1.3,33.79,2.51,6.17,.66,6.22,.76,6.22-5.62,.01-20.96-.02-41.91-.04-62.87,0-8.7-.77-9.77-9.42-10.58-14.08-1.32-28.2-1.22-42.32-.67-.2,0-.38,.2-1.25,.68Zm-54.42,21.15c.19-12.84-1-24.82-.48-36.84,.2-4.45-.3-8.93-.63-13.39-.2-2.71-1.43-3.87-4.07-3.82-4.71,.09-9.41,.34-14.12,.59-4.62,.24-5.04,.64-5.65,5.37-.24,1.86-.28,3.75-.37,5.63-.25,4.94-.3,9.89-.75,14.81-.91,9.86-1.22,19.73-1.2,29.62,.02,7.06-.22,14.12-.2,21.18,.02,7.53,.12,15.07,.35,22.6,.1,3.3,.63,3.76,3.71,3.91,7.29,.34,14.59,.61,21.88,.85,2.68,.09,3.2-.41,3.23-3.36,.05-4.94,.07-9.9-.13-14.83-.46-11.06-1.07-22.11-1.57-32.33Zm-85.82,80.89c0-.11,.01-.23,.02-.34,10.57,.55,21.14,1.15,31.71,1.64,6.34,.29,12.69,.47,19.04,.59,3.59,.07,3.97-.32,3.97-4.1,0-5.17-.08-10.35-.3-15.52-.2-4.66-.54-4.95-5.54-5.14-3.76-.15-7.52-.05-11.29-.07-3.53-.02-7.06,.09-10.58-.12-23.48-1.43-46.97-2.54-70.49-3.1-3.76-.09-7.53-.06-11.29,.06-2.06,.06-3.04,.94-3.23,2.99-.34,3.74-.48,7.51-.7,11.26-.51,8.78-.45,8.94,8.64,9.42,16.68,.88,33.36,1.64,50.04,2.46Zm139.2,5.03c18.3,.78,32.17,1.37,46.03,1.95,1.17,.05,2.35,.07,3.53,0,3.11-.15,3.89-.72,4.04-3.67,.23-4.46,.31-8.93,.27-13.4-.02-2.97-.6-3.48-3.88-3.76-7.03-.58-14.06-1.09-21.1-1.61-12.9-.94-25.8-1.79-38.69-2.81-6.79-.54-13.55-1.46-20.34-2.06-4.21-.38-8.45-.5-12.68-.71-1.75-.09-2.59,.94-2.64,2.55-.19,6.35-.37,12.69-.44,19.04-.02,2.06,.76,2.75,3.1,2.95,3.28,.28,6.57,.49,9.86,.59,12.46,.38,24.92,.7,32.94,.92Zm-78.79,59.73c.41,10.71,.78,26.26,1.7,41.79,.59,9.97,.46,9.09,10.57,9.62,.23,.01,.47,0,.71,0,1.58,.03,2.72-.56,3.14-2.19,.23-.91,.51-1.81,.69-2.74,2.15-11.35,3.8-22.77,4.57-34.31,.61-9.17,1.49-18.32,2.08-27.49,.71-11.05,1.26-22.12,1.81-33.18,.22-4.35,.03-4.51-4.07-4.71-5.65-.29-11.3-.52-16.95-.76-.7-.03-1.42-.06-2.11,.05-.97,.15-1.82,.63-1.93,1.72-.14,1.4-.2,2.82-.2,4.23-.01,14.38,0,28.76,0,47.98Zm89.79-127.34c.14-.78,.42-1.3,.27-1.64-5.04-11.41-9.8-22.95-15.75-33.93-6.21-11.45-13.66-21.99-23.16-31-4.22-4.01-8.63-7.35-14.97-6.32-.89,.14-1.86-.26-2.79-.31-1.43-.09-2.33,.92-1.82,2.17,1.51,3.7,3.12,7.36,4.69,11.04,3.44,7.99,7.3,15.79,9.82,24.18,4.85,16.14,12.28,31.06,22.08,44.79,.55,.77,1.03,1.59,1.65,2.29,.26,.29,.8,.4,1.22,.44,.54,.05,.79-.34,.77-.94-.06-2.35-.09-4.71-.17-7.06-.09-2.59-.41-5.18-.3-7.76,.14-3.34,2.94-4.98,6-3.58,1.48,.68,2.79,1.74,4.19,2.59,2.73,1.64,5.12,3.88,8.26,5.06ZM100.16,105.47c-1.37-1.31-3.07-.64-4.6-.58-10.59,.36-21.18,.41-31.77,.13-9.65-.26-19.3-.36-28.95-.41-5.41-.03-10.83,.1-16.24,.33-5.31,.23-6.35,1.15-6.66,6.08-.32,5.16-.42,10.34-.54,15.52-.05,2.12,.72,2.72,3.11,2.72,.94,0,1.88-.09,2.82-.11,15.06-.33,30.12-.65,45.19-.98,4.94-.11,9.89-.37,14.83-.31,2.86,.04,4.79-.84,6.47-3.28,4.29-6.21,9.35-11.8,14.99-16.85,.65-.58,1.59-1.05,1.36-2.25Zm44.79-12.28c3.79-.36,7.56-.59,11.29-1.11,16.81-2.33,32.36-8.11,46.66-17.23,3.05-1.95,5.33-4.57,6.97-7.8,4.98-9.79-2.17-21.55-13.19-21.7-3.62-.05-6.96,.97-10.23,2.4-7.24,3.17-13.39,7.89-18.72,13.63-8.49,9.15-16.85,18.43-25.25,27.67-.63,.69-1.19,1.45-1.66,2.26-.41,.71-.1,1.46,.64,1.62,1.14,.23,2.33,.2,3.47,.27Zm38.06,8.99c4.23,4.6,7.53,7.91,10.5,11.5,3,3.62,5.7,7.49,8.48,11.3,.94,1.28,2.15,1.76,3.64,1.72,1.65-.04,3.29-.18,4.94-.22,12.48-.28,24.96-.42,37.44,.55,5.23,.41,10.26,1.31,14.9,3.89,.32,.18,.89-.07,1.53-.15,.68-5.59,.29-11.23,.04-16.85-.44-9.68-.48-9.71-10.08-10.27-18.82-1.11-37.67-1.34-56.52-1.46-4.45-.03-8.9,0-14.87,0Zm-124.27,63.19c2.8-.49,5.5-1.08,8.23-1.4,2.56-.3,4.17,1.12,4.01,3.66-.17,2.79-.71,5.55-1.14,8.65,3.22-1.11,5.22-3.45,7.19-5.61,8.42-9.22,16.36-18.83,23.36-29.19,7.51-11.12,14.01-22.85,20.91-34.35,.56-.94,1.37-1.91,.6-3.17-3.72-.88-6.87,.33-9.92,2.41-7.83,5.35-14.84,11.59-20.67,19.08-3.9,5.01-7.74,10.09-11.31,15.34-5.21,7.64-11.18,14.54-18.18,20.58-1.19,1.03-2.87,1.75-3.07,4ZM126.27,84.79c-.9-5.66-1.63-10.28-2.36-14.89-2.17-13.87-10.43-23.91-20.76-32.53-2.23-1.86-4.94-4.55-8.13-2.4-2.82,1.9-2.53,5.36-2.18,8.42,.51,4.5,2.11,8.64,4.3,12.59,5.26,9.51,16.64,20.98,29.13,28.81Zm14.98,130.56s0-.1,0-.14c-3.53,0-7.06-.05-10.59,.02-2.29,.04-2.88,.7-2.77,3.04,.27,6.11,.57,12.22,.91,18.33,.15,2.69,.67,3.33,3.37,3.46,6.58,.3,13.17,.47,19.75,.59,2.29,.04,3.05-.57,3.16-2.85,.32-6.34,.45-12.69,.63-19.04,.05-1.69-.86-2.67-2.49-2.77-3.99-.26-7.98-.43-11.98-.63Zm-2.49-134.59c1.58-1.12,2.28-1.4,2.66-1.91,3.59-4.96,7.33-9.82,10.63-14.97,5.03-7.85,7.71-16.61,8.93-25.83,.54-4.08-.2-7.99-1.9-11.69-.9-1.95-2.1-3.78-4.65-3.72-2.2,.05-3.28,1.62-4.2,3.31-1.82,3.34-2.91,6.95-3.74,10.63-3.21,14.24-5.08,28.7-7.72,44.18Zm29.18-39.5c4.94-8.82,6.34-18.1,4.59-27.84-.34-1.87-1.57-3.4-2.93-4.74-3.65-3.59-8.07-4.63-13-3.83-8.74,1.42-14.35,6.75-17.5,14.7-3.32,8.39-3.65,17.18-2.86,26.96,1.64-2.85,2.05-5.1,2.59-7.33,1.15-4.81,2.73-9.49,4.82-13.98,.99-2.14,2.08-4.23,3.75-5.94,4.76-4.86,11.09-4.45,15.22,.99,1.59,2.1,2.39,4.54,3.06,7.07,1.21,4.56,1.24,9.25,2.26,13.94Zm-52.14,85.69c1.27,.76,2.68,.55,4.04,.5,2.37-.09,3.11-.62,2.98-2.77-.17-2.78,1.16-5.83-1.24-8.28-2.44,1.61-3.23,4.38-4.66,6.7-.72,1.16-1.5,2.36-1.12,3.86Z"/>
  </g>
</svg>