<?xml version="1.0" encoding="UTF-8"?>
<svg id="Capa_2" data-name="Capa 2" xmlns="http://www.w3.org/2000/svg" viewBox="0 0 449.92 323.01">
  <defs>
    <style>
      .cls-1 {
        fill: #c14f4d;
      }
    </style>
  </defs>
  <g id="Capa_1-2" data-name="Capa 1">
    <path class="cls-1" d="M440.86,266.84c.28,.12,1.02,.27,1.51,.7,2.55,2.26,5.04,4.59,7.55,6.9-3.03,2.03-5.88,5.44-9.12,5.87-26.32,3.5-52.7,6.56-79.08,9.52-36.69,4.12-73.44,7.81-110.11,12.09-43,5.02-85.94,10.59-128.93,15.67-18.22,2.15-36.49,4.01-54.78,5.29-7.18,.5-14.55-.63-21.74-1.62-4.72-.65-7.32-3.3-4.3-8.46,.61-1.04,.97-2.53,.76-3.69-4.09-22.64-8.64-45.2-12.36-67.9-7-42.73-13.46-85.54-20.3-128.29C7.01,94.58,3.59,76.32,.62,57.98c-2.03-12.57,.51-16.18,13.39-17.87,34.99-4.6,70.01-8.95,105.04-13.26,63.51-7.81,126.97-16.15,190.59-22.98C336.92,.94,364.54,1.32,392,.01c4.87-.23,6.92,2.29,7.84,6.32,5.29,23.12,11.69,46.06,15.48,69.43,7.66,47.14,14.08,94.49,20.61,141.81,2.24,16.24,3.29,32.65,4.92,49.27ZM376.08,12.87c-2.55,.03-4.81-.08-7.06,.09-30.24,2.36-60.53,4.16-90.69,7.3-44.68,4.65-89.27,10.24-133.89,15.48-42.04,4.93-84.06,9.93-126.09,14.91-1.83,.22-3.64,.65-5.46,.98,53.78,20.36,99.5,54.02,148.42,82.45,6.77-10.72,16.6-15.92,29.26-13.49,11.85,2.28,21.66,8.58,29.24,19.14,14.4-15.58,28.73-30.47,52.24-16.37,34.6-36.75,69.11-73.42,104.02-110.5Zm51.07,247.58c.56-30.02-28.91-227.25-36.49-242.19-11.07,10.91-22.21,21.27-32.66,32.3-21.98,23.2-42.79,47.57-65.68,69.81-12.06,11.71-21.22,23.94-25.89,40.01-2.92,10.06-7.16,19.74-10.74,29.4,56.71,23.37,114.02,47,171.47,70.67ZM51.12,292.82c22.94-17.64,44.81-35.04,67.31-51.59,22.43-16.5,45.48-32.16,68.44-48.31-1.02-1.15-3.04-3.11-4.68-5.35-6.39-8.7-13.04-17.24-18.82-26.33-3.36-5.29-13.1-17.73-18.35-20.9-30.38-18.35-60.61-36.97-91.23-54.91-12.61-7.39-26.09-13.31-39.27-19.94,12.24,76.01,24.34,151.16,36.61,227.34Zm.48,16.66c8.62,1.9,353.92-36.77,360.95-40.25-54.84-23.1-108.89-45.86-163.36-68.8-4.06,7.15-5.76,15.61-14.8,20.09-4.67,2.31-7.89,3.38-11.9,1.16-4.51-2.49-8.75-5.51-12.86-8.63-5.53-4.2-10.83-8.71-15.58-12.57-47.48,36.33-94.33,72.17-142.45,108.99Zm179.14-97.93c9.99-23.7,19.72-46.35,28.99-69.18,1.32-3.26,.41-7.42,.54-11.17-4.34,.21-8.81-.12-12.97,.85-2.5,.58-4.72,2.98-6.75,4.9-4.94,4.69-9.76,9.51-14.51,14.4-7.75,7.98-10.21,7.88-15.54-1.76-4.64-8.39-11.75-13.42-20.63-15.9-11.33-3.17-19.32,4.46-16.78,15.78,.71,3.17,1.73,6.49,3.48,9.17,13.8,21.13,31.37,38.47,54.17,52.91Z"/>
  </g>
</svg>