<?xml version="1.0" encoding="UTF-8"?>
<svg id="Capa_2" data-name="Capa 2" xmlns="http://www.w3.org/2000/svg" viewBox="0 0 1404.23 263.65">
  <defs>
    <style>
      .cls-1 {
        fill: #eb882a;
      }

      .cls-2 {
        fill: #fff;
        font-family: Ranira-Light, Ranira;
        font-size: 100.65px;
        font-weight: 300;
      }

      .cls-3 {
        letter-spacing: 0em;
      }

      .cls-4 {
        letter-spacing: -.02em;
      }

      .cls-5 {
        letter-spacing: 0em;
      }

      .cls-6 {
        letter-spacing: -.02em;
      }
    </style>
  </defs>
  <g id="Capa_1-2" data-name="Capa 1">
    <path class="cls-1" d="M1404.23,79.4c0-59.41-110.26-77.29-126.62-77.54-344.57-5.27-614.02,.8-958.29,16.23C237.68,21.75-18.4-7.58,1.05,153.4c4.9,40.56,46.82,64.91,85.69,77.5,109.76,35.56,227.62,33.89,342.99,31.86,260.35-4.57,520.71-9.15,781.06-13.73,39.13-.69,79.83-1.75,114.66-19.59,60.66-31.06,78.78-81.89,78.78-150.04Z"/>
    <text class="cls-2" transform="translate(421.81 158.8)"><tspan x="0" y="0">¡S</tspan><tspan class="cls-6" x="84.04" y="0">u</tspan><tspan class="cls-4" x="141.91" y="0">b</tspan><tspan class="cls-5" x="193.75" y="0">ilas </tspan><tspan class="cls-3" x="377.93" y="0">a</tspan><tspan x="430.77" y="0">cá!</tspan></text>
  </g>
</svg>