<?xml version="1.0" encoding="UTF-8"?>
<svg id="Capa_2" data-name="Capa 2" xmlns="http://www.w3.org/2000/svg" viewBox="0 0 1404.23 263.65">
  <defs>
    <style>
      .cls-1 {
        letter-spacing: 0em;
      }

      .cls-2 {
        fill: #fff;
        font-family: Ranira-Light, Ranira;
        font-size: 100.65px;
        font-weight: 300;
      }

      .cls-3 {
        letter-spacing: 0em;
      }

      .cls-4 {
        fill: #aabe99;
      }

      .cls-5 {
        letter-spacing: 0em;
      }

      .cls-6 {
        letter-spacing: 0em;
      }

      .cls-7 {
        letter-spacing: 0em;
      }

      .cls-8 {
        letter-spacing: 0em;
      }
    </style>
  </defs>
  <g id="Capa_1-2" data-name="Capa 1">
    <path class="cls-4" d="M1404.23,79.4c0-59.41-110.26-77.29-126.62-77.54-344.57-5.27-614.02,.8-958.29,16.23C237.68,21.75-18.4-7.58,1.05,153.4c4.9,40.56,46.82,64.91,85.69,77.5,109.76,35.56,227.62,33.89,342.99,31.86,260.35-4.57,520.71-9.15,781.06-13.73,39.13-.69,79.83-1.75,114.66-19.59,60.66-31.06,78.78-81.89,78.78-150.04Z"/>
    <text class="cls-2" transform="translate(279.04 158.8)"><tspan x="0" y="0">Link </tspan><tspan class="cls-3" x="226.05" y="0">m</tspan><tspan class="cls-8" x="310.7" y="0">e</tspan><tspan class="cls-6" x="361.83" y="0">r</tspan><tspan class="cls-8" x="408.02" y="0">c</tspan><tspan class="cls-7" x="460.66" y="0">a</tspan><tspan class="cls-1" x="513.61" y="0">do</tspan><tspan x="625.33" y="0">pa</tspan><tspan class="cls-5" x="734.03" y="0">g</tspan><tspan x="788.28" y="0">o</tspan></text>
  </g>
</svg>